<?xml version="1.0" encoding="UTF-8"?>
<!DOCTYPE svg PUBLIC "-//W3C//DTD SVG 1.1//EN" "http://www.w3.org/Graphics/SVG/1.1/DTD/svg11.dtd">
<svg xmlns="http://www.w3.org/2000/svg" version="1.1" width="500px" height="500px" style="shape-rendering:geometricPrecision; text-rendering:geometricPrecision; image-rendering:optimizeQuality; fill-rule:evenodd; clip-rule:evenodd" xmlns:xlink="http://www.w3.org/1999/xlink">
<g><path style="opacity:0.979" fill="#161616" d="M 201.5,94.5 C 203.002,96.8293 202.336,98.1627 199.5,98.5C 195.528,96.3434 191.528,94.51 187.5,93C 184.843,95.1563 183.51,97.6563 183.5,100.5C 184.929,99.065 186.595,98.065 188.5,97.5C 189.442,97.6082 190.275,97.9415 191,98.5C 190.737,99.9506 190.904,101.284 191.5,102.5C 192.85,101.05 194.516,100.383 196.5,100.5C 196.489,102.017 195.823,103.184 194.5,104C 195.337,105.011 195.67,106.178 195.5,107.5C 193.801,113.9 190.801,119.567 186.5,124.5C 185.466,123.313 184.133,122.48 182.5,122C 183.527,121.487 184.527,120.987 185.5,120.5C 187.912,120.306 188.912,118.973 188.5,116.5C 184.011,116.113 179.677,115.113 175.5,113.5C 173.781,112.978 172.448,111.978 171.5,110.5C 174.475,103.847 177.475,97.1805 180.5,90.5C 179.812,89.1451 178.812,88.1451 177.5,87.5C 179.311,85.0166 181.145,85.0166 183,87.5C 182.903,85.5415 182.07,83.8748 180.5,82.5C 179.76,77.0191 177.426,72.3524 173.5,68.5C 173.53,67.5028 173.03,66.8361 172,66.5C 170.923,67.4295 169.756,68.0962 168.5,68.5C 165.331,64.9156 161.331,62.9156 156.5,62.5C 148.628,60.721 140.962,61.221 133.5,64C 138.841,67.2315 144.508,69.8981 150.5,72C 153.266,73.4669 155.766,75.3002 158,77.5C 158.667,80.1667 158.667,82.8333 158,85.5C 156.738,87.7844 155.572,90.1177 154.5,92.5C 153.248,94.599 151.748,96.599 150,98.5C 148.871,100.141 147.371,101.141 145.5,101.5C 138.574,100.657 138.241,99.8232 144.5,99C 145.999,96.6721 147.666,94.5054 149.5,92.5C 153.09,88.4865 154.257,83.8199 153,78.5C 149.04,75.6277 144.874,73.1277 140.5,71C 135.083,70.4615 130.749,68.1282 127.5,64C 128.022,59.9416 130.022,56.9416 133.5,55C 142.438,53.4521 151.438,53.1188 160.5,54C 167.752,56.2623 173.585,60.429 178,66.5C 181.23,73.293 184.73,79.9597 188.5,86.5C 192.727,89.4415 197.06,92.1082 201.5,94.5 Z"/></g>
<g><path style="opacity:1" fill="#dedede" d="M 156.5,62.5 C 155.167,63.1667 153.833,63.8333 152.5,64.5C 150.473,64.3379 148.473,64.5045 146.5,65C 145.044,65.4226 144.544,66.2559 145,67.5C 149.668,70.251 154.501,72.5843 159.5,74.5C 163.252,76.7136 164.419,80.0469 163,84.5C 160.743,88.0122 158.243,91.3456 155.5,94.5C 154.702,94.0431 154.369,93.3764 154.5,92.5C 155.572,90.1177 156.738,87.7844 158,85.5C 158.667,82.8333 158.667,80.1667 158,77.5C 155.766,75.3002 153.266,73.4669 150.5,72C 144.508,69.8981 138.841,67.2315 133.5,64C 140.962,61.221 148.628,60.721 156.5,62.5 Z"/></g>
<g><path style="opacity:1" fill="#161616" d="M 152.5,64.5 C 159.048,64.1805 164.548,66.5139 169,71.5C 170.874,73.569 171.874,75.9023 172,78.5C 167.976,75.7649 163.81,74.4316 159.5,74.5C 154.501,72.5843 149.668,70.251 145,67.5C 144.544,66.2559 145.044,65.4226 146.5,65C 148.473,64.5045 150.473,64.3379 152.5,64.5 Z"/></g>
<g><path style="opacity:0.098" fill="#a29796" d="M 225.5,73.5 C 220.807,73.5401 216.141,73.8734 211.5,74.5C 216.072,72.442 220.738,72.1087 225.5,73.5 Z"/></g>
<g><path style="opacity:1" fill="#9f9f9f" d="M 173.5,68.5 C 177.426,72.3524 179.76,77.0191 180.5,82.5C 177.371,79.0652 174.538,74.7319 172,69.5C 171.395,67.3646 171.895,67.0313 173.5,68.5 Z"/></g>
<g><path style="opacity:1" fill="#b4b4b4" d="M 156.5,62.5 C 161.331,62.9156 165.331,64.9156 168.5,68.5C 172.323,73.4688 175.656,78.8022 178.5,84.5C 178.167,84.8333 177.833,85.1667 177.5,85.5C 174.134,83.962 170.801,82.7953 167.5,82C 170.7,84.0995 174.033,85.9328 177.5,87.5C 178.812,88.1451 179.812,89.1451 180.5,90.5C 177.475,97.1805 174.475,103.847 171.5,110.5C 171.167,110.5 170.833,110.5 170.5,110.5C 170.631,109.761 170.464,109.094 170,108.5C 163.828,113.501 156.994,114.668 149.5,112C 148.257,110.846 147.257,109.512 146.5,108C 142.848,107.501 139.182,107.335 135.5,107.5C 134.787,104.406 133.787,101.406 132.5,98.5C 136.708,101.036 141.041,102.036 145.5,101.5C 147.371,101.141 148.871,100.141 150,98.5C 151.748,96.599 153.248,94.599 154.5,92.5C 154.369,93.3764 154.702,94.0431 155.5,94.5C 158.243,91.3456 160.743,88.0122 163,84.5C 164.419,80.0469 163.252,76.7136 159.5,74.5C 163.81,74.4316 167.976,75.7649 172,78.5C 171.874,75.9023 170.874,73.569 169,71.5C 164.548,66.5139 159.048,64.1805 152.5,64.5C 153.833,63.8333 155.167,63.1667 156.5,62.5 Z"/></g>
<g><path style="opacity:0.98" fill="#38221e" d="M 225.5,73.5 C 228.552,74.8803 230.718,77.2136 232,80.5C 233.255,79.7894 234.421,78.956 235.5,78C 240.833,77.3333 246.167,77.3333 251.5,78C 255.105,79.2701 257.271,81.7701 258,85.5C 259.356,84.6198 260.856,84.2865 262.5,84.5C 263.766,85.0899 265.099,85.5899 266.5,86C 264.618,86.1981 262.952,86.6981 261.5,87.5C 258.835,89.8355 257.502,92.8355 257.5,96.5C 256.627,106.048 255.627,115.715 254.5,125.5C 253.527,127.948 253.194,130.615 253.5,133.5C 252.053,132.866 251.387,131.699 251.5,130C 252.331,125.849 252.997,121.683 253.5,117.5C 251.62,117.771 250.287,117.104 249.5,115.5C 250.822,115.67 251.989,115.337 253,114.5C 253.923,110.21 254.423,105.877 254.5,101.5C 254.829,95.4632 254.496,89.4632 253.5,83.5C 248.049,79.2812 242.049,78.4479 235.5,81C 233.561,82.4321 232.228,84.2654 231.5,86.5C 230.833,86.1667 230.167,85.8333 229.5,85.5C 224.014,73.1049 215.847,72.1049 205,82.5C 202.776,87.4802 203.276,92.1469 206.5,96.5C 206.769,92.2359 206.936,87.9026 207,83.5C 209.398,79.5984 209.898,79.9317 208.5,84.5C 207.28,86.0496 207.28,87.7163 208.5,89.5C 208.979,92.0644 209.645,94.5644 210.5,97C 217.191,98.8363 223.524,101.336 229.5,104.5C 230.189,105.774 231.023,105.774 232,104.5C 232.833,105.5 233.667,106.5 234.5,107.5C 234.833,107.167 235.167,106.833 235.5,106.5C 233.789,100.976 233.122,95.3097 233.5,89.5C 234.614,84.3706 235.281,84.3706 235.5,89.5C 235.186,96.6394 236.686,103.306 240,109.5C 239.249,105.584 238.416,101.584 237.5,97.5C 237.833,96.8333 238.167,96.1667 238.5,95.5C 239.766,99.4648 240.932,103.465 242,107.5C 243.808,110.48 245.974,113.146 248.5,115.5C 247.504,115.586 246.671,115.252 246,114.5C 245.278,117.261 245.445,119.927 246.5,122.5C 244.773,126.881 241.44,128.881 236.5,128.5C 232.295,128.314 228.795,126.648 226,123.5C 225.26,122.251 225.427,121.251 226.5,120.5C 229.175,123.976 232.841,125.976 237.5,126.5C 241.647,125.601 243.981,122.935 244.5,118.5C 244.069,116.234 242.736,114.734 240.5,114C 236.5,113.333 232.5,113.333 228.5,114C 227.944,114.383 227.611,114.883 227.5,115.5C 226.957,115.44 226.624,115.107 226.5,114.5C 227.524,113.148 228.524,111.815 229.5,110.5C 231.199,110.66 232.866,110.494 234.5,110C 228.931,107.433 223.597,104.433 218.5,101C 213.135,99.5278 207.801,99.3611 202.5,100.5C 199.16,101.84 196.827,104.173 195.5,107.5C 195.67,106.178 195.337,105.011 194.5,104C 195.823,103.184 196.489,102.017 196.5,100.5C 198.179,100.715 199.179,100.048 199.5,98.5C 202.336,98.1627 203.002,96.8293 201.5,94.5C 201.125,90.3742 201.625,86.0408 203,81.5C 204.763,77.8682 207.597,75.5349 211.5,74.5C 216.141,73.8734 220.807,73.5401 225.5,73.5 Z"/></g>
<g><path style="opacity:1" fill="#c4a290" d="M 229.5,85.5 C 229.5,86.5 229.5,87.5 229.5,88.5C 226.235,85.6454 224.235,81.9787 223.5,77.5C 220.482,77.3354 217.482,77.502 214.5,78C 212.6,80.3353 210.6,82.502 208.5,84.5C 209.898,79.9317 209.398,79.5984 207,83.5C 206.936,87.9026 206.769,92.2359 206.5,96.5C 203.276,92.1469 202.776,87.4802 205,82.5C 215.847,72.1049 224.014,73.1049 229.5,85.5 Z"/></g>
<g><path style="opacity:0.971" fill="#292727" d="M 149.5,92.5 C 147.666,94.5054 145.999,96.6721 144.5,99C 138.241,99.8232 138.574,100.657 145.5,101.5C 141.041,102.036 136.708,101.036 132.5,98.5C 128.528,96.1783 124.528,93.845 120.5,91.5C 119.417,92.365 119.251,93.365 120,94.5C 123.611,100.444 127.611,106.111 132,111.5C 134.469,113.652 137.302,115.152 140.5,116C 149.22,116.839 157.887,116.505 166.5,115C 168.041,113.629 169.375,112.129 170.5,110.5C 170.833,110.5 171.167,110.5 171.5,110.5C 172.448,111.978 173.781,112.978 175.5,113.5C 173.801,113.34 172.134,113.506 170.5,114C 175.807,115.705 180.807,117.871 185.5,120.5C 184.527,120.987 183.527,121.487 182.5,122C 184.133,122.48 185.466,123.313 186.5,124.5C 183.181,133.357 184.181,141.69 189.5,149.5C 189.565,149.938 189.399,150.272 189,150.5C 187.871,148.859 186.371,147.859 184.5,147.5C 183.069,146.22 182.402,144.553 182.5,142.5C 182.5,137.833 182.5,133.167 182.5,128.5C 183.434,126.761 183.434,125.095 182.5,123.5C 179.02,121.834 175.686,120.001 172.5,118C 160.905,119.315 149.239,119.648 137.5,119C 132.504,117.014 128.337,113.847 125,109.5C 120.897,104.295 117.563,98.628 115,92.5C 112.96,86.6481 114.96,83.3148 121,82.5C 130.001,85.1816 138.334,89.1816 146,94.5C 146.816,93.1772 147.983,92.5106 149.5,92.5 Z"/></g>
<g><path style="opacity:1" fill="#3c3c3c" d="M 173.5,68.5 C 171.895,67.0313 171.395,67.3646 172,69.5C 174.538,74.7319 177.371,79.0652 180.5,82.5C 182.07,83.8748 182.903,85.5415 183,87.5C 181.145,85.0166 179.311,85.0166 177.5,87.5C 174.033,85.9328 170.7,84.0995 167.5,82C 170.801,82.7953 174.134,83.962 177.5,85.5C 177.833,85.1667 178.167,84.8333 178.5,84.5C 175.656,78.8022 172.323,73.4688 168.5,68.5C 169.756,68.0962 170.923,67.4295 172,66.5C 173.03,66.8361 173.53,67.5028 173.5,68.5 Z"/></g>
<g><path style="opacity:1" fill="#f0b794" d="M 229.5,88.5 C 229.5,90.8333 229.5,93.1667 229.5,95.5C 226.887,96.4349 224.221,96.6015 221.5,96C 216.984,93.9765 212.651,91.8099 208.5,89.5C 207.28,87.7163 207.28,86.0496 208.5,84.5C 210.6,82.502 212.6,80.3353 214.5,78C 217.482,77.502 220.482,77.3354 223.5,77.5C 224.235,81.9787 226.235,85.6454 229.5,88.5 Z"/></g>
<g><path style="opacity:1" fill="#efc0a5" d="M 261.5,87.5 C 269.304,86.5305 275.304,89.1972 279.5,95.5C 279.5,96.1667 279.167,96.5 278.5,96.5C 278.067,102.806 276.4,108.806 273.5,114.5C 274.003,109.485 274.67,104.485 275.5,99.5C 275.46,97.5711 275.127,95.7378 274.5,94C 272.095,93.7188 272.095,94.3854 274.5,96C 273.833,97 273.167,98 272.5,99C 268.833,99.3333 265.167,99.6667 261.5,100C 259.65,100.69 258.316,101.856 257.5,103.5C 257.5,101.167 257.5,98.8333 257.5,96.5C 257.502,92.8355 258.835,89.8355 261.5,87.5 Z"/></g>
<g><path style="opacity:1" fill="#eab897" d="M 254.5,101.5 C 253.5,101.5 252.5,101.5 251.5,101.5C 249.139,101.326 246.806,100.993 244.5,100.5C 242.196,96.2026 239.196,92.5359 235.5,89.5C 235.281,84.3706 234.614,84.3706 233.5,89.5C 232.681,92.3054 232.181,95.3054 232,98.5C 231.501,94.5138 231.334,90.5138 231.5,86.5C 232.228,84.2654 233.561,82.4321 235.5,81C 242.049,78.4479 248.049,79.2812 253.5,83.5C 254.496,89.4632 254.829,95.4632 254.5,101.5 Z"/></g>
<g><path style="opacity:1" fill="#784d3b" d="M 229.5,85.5 C 230.167,85.8333 230.833,86.1667 231.5,86.5C 231.334,90.5138 231.501,94.5138 232,98.5C 232.181,95.3054 232.681,92.3054 233.5,89.5C 233.122,95.3097 233.789,100.976 235.5,106.5C 235.167,106.833 234.833,107.167 234.5,107.5C 233.667,106.5 232.833,105.5 232,104.5C 231.023,105.774 230.189,105.774 229.5,104.5C 230.833,101.5 230.833,98.5 229.5,95.5C 229.5,93.1667 229.5,90.8333 229.5,88.5C 229.5,87.5 229.5,86.5 229.5,85.5 Z"/></g>
<g><path style="opacity:1" fill="#9a9898" d="M 199.5,98.5 C 199.179,100.048 198.179,100.715 196.5,100.5C 194.516,100.383 192.85,101.05 191.5,102.5C 190.904,101.284 190.737,99.9506 191,98.5C 190.275,97.9415 189.442,97.6082 188.5,97.5C 186.595,98.065 184.929,99.065 183.5,100.5C 183.51,97.6563 184.843,95.1563 187.5,93C 191.528,94.51 195.528,96.3434 199.5,98.5 Z"/></g>
<g><path style="opacity:0.992" fill="#453735" d="M 262.5,84.5 C 271.922,83.0472 278.922,86.7138 283.5,95.5C 296.709,100.398 304.042,109.898 305.5,124C 304.351,130.762 302.351,137.262 299.5,143.5C 301.565,144.857 303.565,146.19 305.5,147.5C 302.432,146.978 299.432,146.145 296.5,145C 297.738,144.31 297.738,143.81 296.5,143.5C 298.176,138.474 300.01,133.474 302,128.5C 302.913,122.958 302.246,117.625 300,112.5C 296.998,108.332 293.498,104.665 289.5,101.5C 287.04,100.109 284.374,98.9425 281.5,98C 280.934,97.0053 280.267,96.172 279.5,95.5C 275.304,89.1972 269.304,86.5305 261.5,87.5C 262.952,86.6981 264.618,86.1981 266.5,86C 265.099,85.5899 263.766,85.0899 262.5,84.5 Z"/></g>
<g><path style="opacity:1" fill="#d5d5d5" d="M 124.5,92.5 C 126.966,91.3659 129.633,91.1993 132.5,92C 136.038,94.2685 139.705,96.2685 143.5,98C 140.833,98.6667 138.167,98.6667 135.5,98C 132.09,95.6284 128.423,93.7951 124.5,92.5 Z"/></g>
<g><path style="opacity:1" fill="#bf7f62" d="M 208.5,89.5 C 212.651,91.8099 216.984,93.9765 221.5,96C 224.221,96.6015 226.887,96.4349 229.5,95.5C 230.833,98.5 230.833,101.5 229.5,104.5C 223.524,101.336 217.191,98.8363 210.5,97C 209.645,94.5644 208.979,92.0644 208.5,89.5 Z"/></g>
<g><path style="opacity:1" fill="#87756f" d="M 279.5,95.5 C 280.267,96.172 280.934,97.0053 281.5,98C 284.374,98.9425 287.04,100.109 289.5,101.5C 287.95,102.441 286.284,103.107 284.5,103.5C 284.611,102.883 284.944,102.383 285.5,102C 282.018,101.479 279.685,99.6455 278.5,96.5C 279.167,96.5 279.5,96.1667 279.5,95.5 Z"/></g>
<g><path style="opacity:1" fill="#b37c62" d="M 235.5,89.5 C 239.196,92.5359 242.196,96.2026 244.5,100.5C 243.241,104.704 244.574,108.037 248.5,110.5C 249.647,110.182 250.481,109.516 251,108.5C 251.497,106.19 251.663,103.857 251.5,101.5C 252.5,101.5 253.5,101.5 254.5,101.5C 254.423,105.877 253.923,110.21 253,114.5C 251.989,115.337 250.822,115.67 249.5,115.5C 249.167,115.5 248.833,115.5 248.5,115.5C 245.974,113.146 243.808,110.48 242,107.5C 240.932,103.465 239.766,99.4648 238.5,95.5C 238.167,96.1667 237.833,96.8333 237.5,97.5C 238.416,101.584 239.249,105.584 240,109.5C 236.686,103.306 235.186,96.6394 235.5,89.5 Z"/></g>
<g><path style="opacity:1" fill="#edbc9d" d="M 229.5,110.5 C 228.417,110.461 227.417,110.127 226.5,109.5C 223.789,111.713 222.122,114.546 221.5,118C 222.732,121.39 223.566,121.223 224,117.5C 224.494,119.134 224.66,120.801 224.5,122.5C 222.585,122.784 220.919,122.451 219.5,121.5C 219.616,118.14 219.949,114.807 220.5,111.5C 221.5,111.5 222.5,111.5 223.5,111.5C 223.5,109.5 223.5,107.5 223.5,105.5C 218.84,104.833 214.174,104.667 209.5,105C 207.462,106.236 206.295,108.069 206,110.5C 204.307,111.184 202.807,112.184 201.5,113.5C 200.304,113.154 200.304,112.654 201.5,112C 200.207,111.51 198.873,111.343 197.5,111.5C 198.909,107.684 200.576,104.017 202.5,100.5C 207.801,99.3611 213.135,99.5278 218.5,101C 223.597,104.433 228.931,107.433 234.5,110C 232.866,110.494 231.199,110.66 229.5,110.5 Z"/></g>
<g><path style="opacity:1" fill="#ce8253" d="M 244.5,100.5 C 246.806,100.993 249.139,101.326 251.5,101.5C 251.663,103.857 251.497,106.19 251,108.5C 250.481,109.516 249.647,110.182 248.5,110.5C 244.574,108.037 243.241,104.704 244.5,100.5 Z"/></g>
<g><path style="opacity:1" fill="#eeb08b" d="M 273.5,114.5 C 273.5,115.5 273.5,116.5 273.5,117.5C 272.24,119.367 270.573,120.7 268.5,121.5C 267.127,121.657 265.793,121.49 264.5,121C 261.979,118.78 259.812,116.28 258,113.5C 257.502,110.183 257.335,106.85 257.5,103.5C 258.316,101.856 259.65,100.69 261.5,100C 265.167,99.6667 268.833,99.3333 272.5,99C 273.167,98 273.833,97 274.5,96C 272.095,94.3854 272.095,93.7188 274.5,94C 275.127,95.7378 275.46,97.5711 275.5,99.5C 274.67,104.485 274.003,109.485 273.5,114.5 Z"/></g>
<g><path style="opacity:1" fill="#ececed" d="M 132.5,98.5 C 133.787,101.406 134.787,104.406 135.5,107.5C 139.182,107.335 142.848,107.501 146.5,108C 147.257,109.512 148.257,110.846 149.5,112C 156.994,114.668 163.828,113.501 170,108.5C 170.464,109.094 170.631,109.761 170.5,110.5C 169.375,112.129 168.041,113.629 166.5,115C 157.887,116.505 149.22,116.839 140.5,116C 137.302,115.152 134.469,113.652 132,111.5C 127.611,106.111 123.611,100.444 120,94.5C 119.251,93.365 119.417,92.365 120.5,91.5C 124.528,93.845 128.528,96.1783 132.5,98.5 Z"/></g>
<g><path style="opacity:1" fill="#301711" d="M 278.5,96.5 C 279.685,99.6455 282.018,101.479 285.5,102C 284.944,102.383 284.611,102.883 284.5,103.5C 282.376,104.031 280.876,105.365 280,107.5C 279.057,110.824 278.224,114.157 277.5,117.5C 274.337,124.101 271.171,130.768 268,137.5C 267.51,138.793 267.343,140.127 267.5,141.5C 265.171,139.951 262.504,139.117 259.5,139C 257.456,138.502 256.122,137.335 255.5,135.5C 262.205,139.244 267.039,137.577 270,130.5C 271.327,126.192 272.493,121.859 273.5,117.5C 273.5,116.5 273.5,115.5 273.5,114.5C 276.4,108.806 278.067,102.806 278.5,96.5 Z"/></g>
<g><path style="opacity:1" fill="#efae88" d="M 219.5,121.5 C 217.205,120.37 215.038,119.037 213,117.5C 209.188,118.798 205.522,118.464 202,116.5C 201.26,117.749 201.427,118.749 202.5,119.5C 202.5,119.833 202.5,120.167 202.5,120.5C 200.29,121.331 197.623,121.497 194.5,121C 195.131,117.708 196.131,114.542 197.5,111.5C 198.873,111.343 200.207,111.51 201.5,112C 200.304,112.654 200.304,113.154 201.5,113.5C 202.807,112.184 204.307,111.184 206,110.5C 206.295,108.069 207.462,106.236 209.5,105C 214.174,104.667 218.84,104.833 223.5,105.5C 223.5,107.5 223.5,109.5 223.5,111.5C 222.5,111.5 221.5,111.5 220.5,111.5C 219.949,114.807 219.616,118.14 219.5,121.5 Z"/></g>
<g><path style="opacity:1" fill="#c3c3c3" d="M 175.5,113.5 C 179.677,115.113 184.011,116.113 188.5,116.5C 188.912,118.973 187.912,120.306 185.5,120.5C 180.807,117.871 175.807,115.705 170.5,114C 172.134,113.506 173.801,113.34 175.5,113.5 Z"/></g>
<g><path style="opacity:1" fill="#e3ae95" d="M 226.5,120.5 C 226.366,118.708 226.699,117.042 227.5,115.5C 227.611,114.883 227.944,114.383 228.5,114C 232.5,113.333 236.5,113.333 240.5,114C 242.736,114.734 244.069,116.234 244.5,118.5C 243.981,122.935 241.647,125.601 237.5,126.5C 232.841,125.976 229.175,123.976 226.5,120.5 Z"/></g>
<g><path style="opacity:1" fill="#eeaf88" d="M 292.5,119.5 C 292.5,120.167 292.167,120.5 291.5,120.5C 288.869,125.191 284.869,126.691 279.5,125C 278.915,123.698 278.249,122.531 277.5,121.5C 277.5,120.5 277.5,119.5 277.5,118.5C 279.488,115.569 281.822,112.902 284.5,110.5C 286.765,110.94 288.932,111.606 291,112.5C 291.29,114.92 291.79,117.254 292.5,119.5 Z"/></g>
<g><path style="opacity:1" fill="#d5a990" d="M 289.5,101.5 C 293.498,104.665 296.998,108.332 300,112.5C 302.246,117.625 302.913,122.958 302,128.5C 300.01,133.474 298.176,138.474 296.5,143.5C 295.414,143.38 294.747,142.713 294.5,141.5C 295.046,139.865 295.38,138.199 295.5,136.5C 296.124,136.083 296.457,135.416 296.5,134.5C 295.833,133.167 295.167,131.833 294.5,130.5C 296.335,124.207 297.002,117.874 296.5,111.5C 295.686,113.766 295.186,116.1 295,118.5C 294.617,119.056 294.117,119.389 293.5,119.5C 293.167,119.5 292.833,119.5 292.5,119.5C 291.79,117.254 291.29,114.92 291,112.5C 288.932,111.606 286.765,110.94 284.5,110.5C 281.822,112.902 279.488,115.569 277.5,118.5C 277.5,118.167 277.5,117.833 277.5,117.5C 278.224,114.157 279.057,110.824 280,107.5C 280.876,105.365 282.376,104.031 284.5,103.5C 286.284,103.107 287.95,102.441 289.5,101.5 Z"/></g>
<g><path style="opacity:1" fill="#ad755d" d="M 273.5,117.5 C 272.493,121.859 271.327,126.192 270,130.5C 267.039,137.577 262.205,139.244 255.5,135.5C 254.5,135.167 253.833,134.5 253.5,133.5C 253.194,130.615 253.527,127.948 254.5,125.5C 254.318,127.591 254.652,129.591 255.5,131.5C 265.817,136.164 270.151,132.831 268.5,121.5C 270.573,120.7 272.24,119.367 273.5,117.5 Z"/></g>
<g><path style="opacity:1" fill="#3b1b16" d="M 295.5,136.5 C 295.5,135.5 295.5,134.5 295.5,133.5C 293.833,133.5 292.167,133.5 290.5,133.5C 290.715,135.179 290.048,136.179 288.5,136.5C 291.243,131.204 292.91,125.537 293.5,119.5C 294.117,119.389 294.617,119.056 295,118.5C 295.186,116.1 295.686,113.766 296.5,111.5C 297.002,117.874 296.335,124.207 294.5,130.5C 295.167,131.833 295.833,133.167 296.5,134.5C 296.457,135.416 296.124,136.083 295.5,136.5 Z"/></g>
<g><path style="opacity:1" fill="#b57b5f" d="M 229.5,110.5 C 228.524,111.815 227.524,113.148 226.5,114.5C 226.624,115.107 226.957,115.44 227.5,115.5C 226.699,117.042 226.366,118.708 226.5,120.5C 225.427,121.251 225.26,122.251 226,123.5C 228.795,126.648 232.295,128.314 236.5,128.5C 241.44,128.881 244.773,126.881 246.5,122.5C 247.043,122.56 247.376,122.893 247.5,123.5C 243.324,131.754 236.657,134.92 227.5,133C 222.153,129.929 216.82,126.762 211.5,123.5C 210.784,124.311 209.95,124.978 209,125.5C 206.771,123.385 204.771,121.052 203,118.5C 202.601,118.728 202.435,119.062 202.5,119.5C 201.427,118.749 201.26,117.749 202,116.5C 205.522,118.464 209.188,118.798 213,117.5C 215.038,119.037 217.205,120.37 219.5,121.5C 220.919,122.451 222.585,122.784 224.5,122.5C 224.66,120.801 224.494,119.134 224,117.5C 223.566,121.223 222.732,121.39 221.5,118C 222.122,114.546 223.789,111.713 226.5,109.5C 227.417,110.127 228.417,110.461 229.5,110.5 Z"/></g>
<g><path style="opacity:1" fill="#c5815b" d="M 257.5,96.5 C 257.5,98.8333 257.5,101.167 257.5,103.5C 257.335,106.85 257.502,110.183 258,113.5C 259.812,116.28 261.979,118.78 264.5,121C 265.793,121.49 267.127,121.657 268.5,121.5C 270.151,132.831 265.817,136.164 255.5,131.5C 254.652,129.591 254.318,127.591 254.5,125.5C 255.627,115.715 256.627,106.048 257.5,96.5 Z"/></g>
<g><path style="opacity:0.412" fill="#706463" d="M 182.5,128.5 C 182.5,133.167 182.5,137.833 182.5,142.5C 179.961,137.818 179.961,133.151 182.5,128.5 Z"/></g>
<g><path style="opacity:1" fill="#ab7c68" d="M 277.5,117.5 C 277.5,117.833 277.5,118.167 277.5,118.5C 277.5,119.5 277.5,120.5 277.5,121.5C 276.355,125.416 275.522,129.416 275,133.5C 273.989,134.337 272.822,134.67 271.5,134.5C 271.5,136.5 271.5,138.5 271.5,140.5C 271.611,141.117 271.944,141.617 272.5,142C 278.905,143.295 283.571,141.128 286.5,135.5C 289.882,131.194 291.549,126.194 291.5,120.5C 292.167,120.5 292.5,120.167 292.5,119.5C 292.833,119.5 293.167,119.5 293.5,119.5C 292.91,125.537 291.243,131.204 288.5,136.5C 284.784,144.07 278.784,146.57 270.5,144C 269.058,143.623 268.058,142.79 267.5,141.5C 267.343,140.127 267.51,138.793 268,137.5C 271.171,130.768 274.337,124.101 277.5,117.5 Z"/></g>
<g><path style="opacity:1" fill="#ca8257" d="M 291.5,120.5 C 291.549,126.194 289.882,131.194 286.5,135.5C 286.565,135.062 286.399,134.728 286,134.5C 282.494,139.669 277.661,141.669 271.5,140.5C 271.5,138.5 271.5,136.5 271.5,134.5C 272.822,134.67 273.989,134.337 275,133.5C 275.522,129.416 276.355,125.416 277.5,121.5C 278.249,122.531 278.915,123.698 279.5,125C 284.869,126.691 288.869,125.191 291.5,120.5 Z"/></g>
<g><path style="opacity:1" fill="#3f302e" d="M 184.5,147.5 C 186.371,147.859 187.871,148.859 189,150.5C 189.399,150.272 189.565,149.938 189.5,149.5C 196.754,159.267 204.254,168.933 212,178.5C 212.511,180.878 213.178,183.212 214,185.5C 214.169,199.339 214.669,213.006 215.5,226.5C 215.5,227.5 215.5,228.5 215.5,229.5C 215.291,230.922 214.791,232.255 214,233.5C 213.831,218.994 213.331,204.661 212.5,190.5C 212.66,188.801 212.494,187.134 212,185.5C 211.823,189.356 211.323,193.023 210.5,196.5C 210.404,190.802 209.904,185.135 209,179.5C 199.468,169.811 191.301,159.144 184.5,147.5 Z"/></g>
<g><path style="opacity:1" fill="#ca845b" d="M 197.5,146.5 C 205.207,149.186 212.54,152.686 219.5,157C 222.117,157.822 224.784,158.322 227.5,158.5C 227.677,160.981 226.677,162.814 224.5,164C 225.167,164.667 225.833,165.333 226.5,166C 233.934,169.063 241.6,171.563 249.5,173.5C 249.291,174.086 248.957,174.586 248.5,175C 249.833,175 251.167,175 252.5,175C 253.397,177.311 254.73,179.144 256.5,180.5C 253.924,181.914 251.257,183.414 248.5,185C 247.207,185.49 245.873,185.657 244.5,185.5C 244.472,183.418 245.139,181.584 246.5,180C 245.382,178.926 244.382,177.76 243.5,176.5C 241.028,177.42 239.362,176.42 238.5,173.5C 235.381,171.307 232.048,170.974 228.5,172.5C 224.848,171.37 221.182,170.37 217.5,169.5C 217.1,167.623 216.1,166.123 214.5,165C 216.175,163.498 217.841,161.998 219.5,160.5C 216.107,157.421 212.107,155.588 207.5,155C 203.497,152.85 200.164,150.016 197.5,146.5 Z"/></g>
<g><path style="opacity:1" fill="#be805d" d="M 262.5,162.5 C 256.848,163.302 251.182,163.469 245.5,163C 240.833,159.667 236.833,155.667 233.5,151C 232.668,150.312 232.002,150.479 231.5,151.5C 232.326,152.451 232.492,153.451 232,154.5C 228.048,150.093 224.215,145.593 220.5,141C 217.607,139.851 214.607,139.351 211.5,139.5C 220.53,135.694 227.53,138.194 232.5,147C 234.116,147.615 235.449,148.615 236.5,150C 238.167,150.333 239.833,150.667 241.5,151C 245.816,157.225 251.816,160.225 259.5,160C 260.942,160.377 261.942,161.21 262.5,162.5 Z"/></g>
<g><path style="opacity:0.102" fill="#939396" d="M 327.5,152.5 C 331.489,152.116 335.155,152.783 338.5,154.5C 334.64,154.192 330.974,153.525 327.5,152.5 Z"/></g>
<g><path style="opacity:0.991" fill="#121010" d="M 248.5,115.5 C 248.833,115.5 249.167,115.5 249.5,115.5C 250.287,117.104 251.62,117.771 253.5,117.5C 252.997,121.683 252.331,125.849 251.5,130C 251.387,131.699 252.053,132.866 253.5,133.5C 253.833,134.5 254.5,135.167 255.5,135.5C 256.122,137.335 257.456,138.502 259.5,139C 262.504,139.117 265.171,139.951 267.5,141.5C 268.058,142.79 269.058,143.623 270.5,144C 278.784,146.57 284.784,144.07 288.5,136.5C 290.048,136.179 290.715,135.179 290.5,133.5C 292.167,133.5 293.833,133.5 295.5,133.5C 295.5,134.5 295.5,135.5 295.5,136.5C 295.38,138.199 295.046,139.865 294.5,141.5C 294.747,142.713 295.414,143.38 296.5,143.5C 297.738,143.81 297.738,144.31 296.5,145C 299.432,146.145 302.432,146.978 305.5,147.5C 309.154,148.328 312.487,149.828 315.5,152C 319.486,152.499 323.486,152.666 327.5,152.5C 330.974,153.525 334.64,154.192 338.5,154.5C 343.879,155.697 348.045,158.697 351,163.5C 355.168,173.294 354.501,182.961 349,192.5C 345.658,197.359 341.158,200.359 335.5,201.5C 331.818,201.665 328.152,201.499 324.5,201C 321.972,199.983 321.972,198.816 324.5,197.5C 322.757,195.962 320.757,194.962 318.5,194.5C 317.057,191.508 315.39,188.508 313.5,185.5C 310.351,175.237 313.684,168.237 323.5,164.5C 327.046,164.441 330.379,163.608 333.5,162C 326.589,160.616 319.589,160.116 312.5,160.5C 304.438,156.469 296.438,152.469 288.5,148.5C 287.749,147.427 286.749,147.26 285.5,148C 282.918,151.282 279.584,152.282 275.5,151C 271.973,150.049 268.64,148.716 265.5,147C 264.833,145.667 264.167,144.333 263.5,143C 258.071,142.23 253.071,140.397 248.5,137.5C 246.673,139.487 245.673,141.821 245.5,144.5C 244.5,144.5 243.5,144.5 242.5,144.5C 239.906,141.347 236.906,140.847 233.5,143C 234.167,143.667 234.833,144.333 235.5,145C 253.155,153.827 270.822,162.661 288.5,171.5C 286.866,174.151 285.199,174.151 283.5,171.5C 281.517,172.902 279.851,174.736 278.5,177C 272.993,179.459 271.993,178.792 275.5,175C 274.5,174.667 273.5,174.333 272.5,174C 274.5,172.667 276.5,171.333 278.5,170C 275.941,168.223 273.274,166.723 270.5,165.5C 267.993,164.108 265.327,163.108 262.5,162.5C 261.942,161.21 260.942,160.377 259.5,160C 251.816,160.225 245.816,157.225 241.5,151C 239.833,150.667 238.167,150.333 236.5,150C 235.449,148.615 234.116,147.615 232.5,147C 227.53,138.194 220.53,135.694 211.5,139.5C 209.545,140.323 207.545,140.49 205.5,140C 205.957,139.586 206.291,139.086 206.5,138.5C 205.311,137.571 203.978,137.238 202.5,137.5C 201.392,133.869 199.226,130.869 196,128.5C 195.517,127.552 195.351,126.552 195.5,125.5C 198.927,125.976 202.26,125.976 205.5,125.5C 204.725,123.604 203.725,121.937 202.5,120.5C 202.5,120.167 202.5,119.833 202.5,119.5C 202.435,119.062 202.601,118.728 203,118.5C 204.771,121.052 206.771,123.385 209,125.5C 209.95,124.978 210.784,124.311 211.5,123.5C 216.82,126.762 222.153,129.929 227.5,133C 236.657,134.92 243.324,131.754 247.5,123.5C 247.376,122.893 247.043,122.56 246.5,122.5C 245.445,119.927 245.278,117.261 246,114.5C 246.671,115.252 247.504,115.586 248.5,115.5 Z M 328.5,174.5 C 333.552,174.934 335.385,177.601 334,182.5C 329.407,186.489 325.907,185.489 323.5,179.5C 324.245,176.754 325.912,175.088 328.5,174.5 Z"/></g>
<g><path style="opacity:1" fill="#622d1b" d="M 286.5,135.5 C 283.571,141.128 278.905,143.295 272.5,142C 271.944,141.617 271.611,141.117 271.5,140.5C 277.661,141.669 282.494,139.669 286,134.5C 286.399,134.728 286.565,135.062 286.5,135.5 Z"/></g>
<g><path style="opacity:1" fill="#e7e6e6" d="M 288.5,148.5 C 296.438,152.469 304.438,156.469 312.5,160.5C 316.684,161.166 321.018,161.833 325.5,162.5C 325.043,163.298 324.376,163.631 323.5,163.5C 318.087,163.771 312.754,163.271 307.5,162C 300.339,158.179 293.339,154.179 286.5,150C 286.836,148.97 287.503,148.47 288.5,148.5 Z"/></g>
<g><path style="opacity:1" fill="#939393" d="M 306.5,155.5 C 306.56,154.957 306.893,154.624 307.5,154.5C 309.717,155.572 312.05,156.239 314.5,156.5C 318.192,155.411 321.858,155.411 325.5,156.5C 325.167,157.167 324.833,157.833 324.5,158.5C 318.028,160.254 312.028,159.254 306.5,155.5 Z"/></g>
<g><path style="opacity:1" fill="#a9755a" d="M 189.5,141.5 C 190.833,141.833 192.167,142.167 193.5,142.5C 194.833,143.833 196.167,145.167 197.5,146.5C 200.164,150.016 203.497,152.85 207.5,155C 212.107,155.588 216.107,157.421 219.5,160.5C 217.841,161.998 216.175,163.498 214.5,165C 216.1,166.123 217.1,167.623 217.5,169.5C 214.418,167.925 211.751,165.758 209.5,163C 210.623,161.956 211.956,161.29 213.5,161C 203.862,156.53 195.862,150.03 189.5,141.5 Z"/></g>
<g><path style="opacity:1" fill="#dedede" d="M 242.5,144.5 C 246.106,146.793 250.106,148.293 254.5,149C 255.5,150 256.5,151 257.5,152C 274.702,159.392 291.368,167.725 307.5,177C 309.399,179.988 311.399,182.821 313.5,185.5C 313.631,186.239 313.464,186.906 313,187.5C 311.989,186.663 310.822,186.33 309.5,186.5C 306.711,184.648 304.711,182.148 303.5,179C 298.447,176.473 293.447,173.973 288.5,171.5C 270.822,162.661 253.155,153.827 235.5,145C 234.833,144.333 234.167,143.667 233.5,143C 236.906,140.847 239.906,141.347 242.5,144.5 Z"/></g>
<g><path style="opacity:1" fill="#b5b5b5" d="M 288.5,148.5 C 287.503,148.47 286.836,148.97 286.5,150C 293.339,154.179 300.339,158.179 307.5,162C 312.754,163.271 318.087,163.771 323.5,163.5C 323.5,163.833 323.5,164.167 323.5,164.5C 313.684,168.237 310.351,175.237 313.5,185.5C 311.399,182.821 309.399,179.988 307.5,177C 291.368,167.725 274.702,159.392 257.5,152C 256.5,151 255.5,150 254.5,149C 250.106,148.293 246.106,146.793 242.5,144.5C 243.5,144.5 244.5,144.5 245.5,144.5C 245.673,141.821 246.673,139.487 248.5,137.5C 253.071,140.397 258.071,142.23 263.5,143C 264.167,144.333 264.833,145.667 265.5,147C 268.64,148.716 271.973,150.049 275.5,151C 279.584,152.282 282.918,151.282 285.5,148C 286.749,147.26 287.749,147.427 288.5,148.5 Z"/></g>
<g><path style="opacity:1" fill="#757575" d="M 312.5,160.5 C 319.589,160.116 326.589,160.616 333.5,162C 330.379,163.608 327.046,164.441 323.5,164.5C 323.5,164.167 323.5,163.833 323.5,163.5C 324.376,163.631 325.043,163.298 325.5,162.5C 321.018,161.833 316.684,161.166 312.5,160.5 Z"/></g>
<g><path style="opacity:1" fill="#efb18b" d="M 211.5,139.5 C 214.607,139.351 217.607,139.851 220.5,141C 224.215,145.593 228.048,150.093 232,154.5C 232.492,153.451 232.326,152.451 231.5,151.5C 232.002,150.479 232.668,150.312 233.5,151C 236.833,155.667 240.833,159.667 245.5,163C 251.182,163.469 256.848,163.302 262.5,162.5C 265.327,163.108 267.993,164.108 270.5,165.5C 269.634,169.554 268.468,173.554 267,177.5C 265.698,178.085 264.531,178.751 263.5,179.5C 261.05,179.298 258.717,179.631 256.5,180.5C 254.73,179.144 253.397,177.311 252.5,175C 251.167,175 249.833,175 248.5,175C 248.957,174.586 249.291,174.086 249.5,173.5C 241.6,171.563 233.934,169.063 226.5,166C 225.833,165.333 225.167,164.667 224.5,164C 226.677,162.814 227.677,160.981 227.5,158.5C 224.784,158.322 222.117,157.822 219.5,157C 212.54,152.686 205.207,149.186 197.5,146.5C 196.167,145.167 194.833,143.833 193.5,142.5C 191.633,140.091 189.466,137.758 187,135.5C 186.186,133.098 186.353,130.765 187.5,128.5C 189.156,126.54 190.823,124.54 192.5,122.5C 193.91,124.949 193.576,127.116 191.5,129C 193.208,131.043 195.208,132.71 197.5,134C 196.359,134.741 196.359,135.575 197.5,136.5C 199.657,137.79 201.99,138.624 204.5,139C 204.043,139.414 203.709,139.914 203.5,140.5C 204.667,140.833 205.833,141.167 207,141.5C 209.008,141.693 210.508,141.026 211.5,139.5 Z"/></g>
<g><path style="opacity:1" fill="#c59f8c" d="M 202.5,100.5 C 200.576,104.017 198.909,107.684 197.5,111.5C 196.131,114.542 195.131,117.708 194.5,121C 197.623,121.497 200.29,121.331 202.5,120.5C 203.725,121.937 204.725,123.604 205.5,125.5C 202.26,125.976 198.927,125.976 195.5,125.5C 195.351,126.552 195.517,127.552 196,128.5C 199.226,130.869 201.392,133.869 202.5,137.5C 203.978,137.238 205.311,137.571 206.5,138.5C 206.291,139.086 205.957,139.586 205.5,140C 207.545,140.49 209.545,140.323 211.5,139.5C 210.508,141.026 209.008,141.693 207,141.5C 205.833,141.167 204.667,140.833 203.5,140.5C 203.709,139.914 204.043,139.414 204.5,139C 201.99,138.624 199.657,137.79 197.5,136.5C 196.359,135.575 196.359,134.741 197.5,134C 195.208,132.71 193.208,131.043 191.5,129C 193.576,127.116 193.91,124.949 192.5,122.5C 190.823,124.54 189.156,126.54 187.5,128.5C 186.353,130.765 186.186,133.098 187,135.5C 189.466,137.758 191.633,140.091 193.5,142.5C 192.167,142.167 190.833,141.833 189.5,141.5C 189.44,140.957 189.107,140.624 188.5,140.5C 187.417,141.365 187.251,142.365 188,143.5C 196.54,156.542 206.373,168.542 217.5,179.5C 218.098,180.795 218.598,182.128 219,183.5C 219.857,198.001 218.69,212.335 215.5,226.5C 214.669,213.006 214.169,199.339 214,185.5C 213.178,183.212 212.511,180.878 212,178.5C 204.254,168.933 196.754,159.267 189.5,149.5C 184.181,141.69 183.181,133.357 186.5,124.5C 190.801,119.567 193.801,113.9 195.5,107.5C 196.827,104.173 199.16,101.84 202.5,100.5 Z"/></g>
<g><path style="opacity:1" fill="#d3a68d" d="M 270.5,165.5 C 273.274,166.723 275.941,168.223 278.5,170C 276.5,171.333 274.5,172.667 272.5,174C 273.5,174.333 274.5,174.667 275.5,175C 271.993,178.792 272.993,179.459 278.5,177C 279.851,174.736 281.517,172.902 283.5,171.5C 282.936,175.641 280.936,178.641 277.5,180.5C 275.833,180.5 274.167,180.5 272.5,180.5C 269.43,180.632 266.43,180.299 263.5,179.5C 264.531,178.751 265.698,178.085 267,177.5C 268.468,173.554 269.634,169.554 270.5,165.5 Z"/></g>
<g><path style="opacity:1" fill="#a16e58" d="M 217.5,169.5 C 221.182,170.37 224.848,171.37 228.5,172.5C 232.048,170.974 235.381,171.307 238.5,173.5C 239.362,176.42 241.028,177.42 243.5,176.5C 244.382,177.76 245.382,178.926 246.5,180C 245.139,181.584 244.472,183.418 244.5,185.5C 245.873,185.657 247.207,185.49 248.5,185C 251.257,183.414 253.924,181.914 256.5,180.5C 258.717,179.631 261.05,179.298 263.5,179.5C 266.43,180.299 269.43,180.632 272.5,180.5C 264.201,181.151 256.201,183.318 248.5,187C 243.5,187.667 238.5,187.667 233.5,187C 237.475,185.564 241.142,183.564 244.5,181C 241.974,181.904 239.308,182.238 236.5,182C 237.328,181.085 238.328,180.419 239.5,180C 237.833,179.667 236.167,179.333 234.5,179C 235.357,178.311 236.023,177.478 236.5,176.5C 229.148,176.646 222.815,174.313 217.5,169.5 Z"/></g>
<g><path style="opacity:1" fill="#150806" d="M 189.5,141.5 C 195.862,150.03 203.862,156.53 213.5,161C 211.956,161.29 210.623,161.956 209.5,163C 211.751,165.758 214.418,167.925 217.5,169.5C 222.815,174.313 229.148,176.646 236.5,176.5C 236.023,177.478 235.357,178.311 234.5,179C 236.167,179.333 237.833,179.667 239.5,180C 238.328,180.419 237.328,181.085 236.5,182C 239.308,182.238 241.974,181.904 244.5,181C 241.142,183.564 237.475,185.564 233.5,187C 238.5,187.667 243.5,187.667 248.5,187C 256.201,183.318 264.201,181.151 272.5,180.5C 274.167,180.5 275.833,180.5 277.5,180.5C 279.925,180.684 279.925,181.351 277.5,182.5C 278.612,183.265 279.279,184.265 279.5,185.5C 279.573,187.027 278.906,188.027 277.5,188.5C 276.141,187.993 275.141,186.993 274.5,185.5C 271.032,188.546 267.032,190.713 262.5,192C 263.938,192.219 265.271,192.719 266.5,193.5C 264.668,194.057 263.335,195.057 262.5,196.5C 260.455,195.077 259.455,193.077 259.5,190.5C 262.927,189.567 266.26,188.4 269.5,187C 270.82,184.785 270.153,183.285 267.5,182.5C 263.75,184.441 259.75,185.774 255.5,186.5C 254.91,187.799 253.91,188.632 252.5,189C 248.781,189.388 245.114,190.055 241.5,191C 242.582,208.142 242.082,225.309 240,242.5C 234.372,244.873 230.039,243.206 227,237.5C 226.505,235.527 226.338,233.527 226.5,231.5C 229.118,236.118 232.784,239.784 237.5,242.5C 238.317,225.815 239.317,209.149 240.5,192.5C 236.325,192.812 232.325,192.145 228.5,190.5C 227.353,192.765 227.186,195.098 228,197.5C 229.892,199.054 231.392,200.888 232.5,203C 230.466,204.83 228.299,206.663 226,208.5C 224.212,215.112 224.046,221.778 225.5,228.5C 223.87,226.974 223.037,224.974 223,222.5C 222.254,217.543 222.754,212.71 224.5,208C 224.507,206.188 223.84,204.688 222.5,203.5C 221.808,204.025 221.308,204.692 221,205.5C 220.853,210.955 220.02,216.288 218.5,221.5C 219.933,223.336 220.433,225.336 220,227.5C 219.667,227.167 219.333,226.833 219,226.5C 218.667,227.833 218.333,229.167 218,230.5C 217.329,229.748 216.496,229.414 215.5,229.5C 215.5,228.5 215.5,227.5 215.5,226.5C 218.69,212.335 219.857,198.001 219,183.5C 218.598,182.128 218.098,180.795 217.5,179.5C 206.373,168.542 196.54,156.542 188,143.5C 187.251,142.365 187.417,141.365 188.5,140.5C 189.107,140.624 189.44,140.957 189.5,141.5 Z"/></g>
<g><path style="opacity:1" fill="#7a7a7a" d="M 343.5,174.5 C 348.126,181.568 346.959,187.901 340,193.5C 340.732,190.701 342.066,188.034 344,185.5C 344.678,181.779 344.511,178.112 343.5,174.5 Z"/></g>
<g><path style="opacity:0.995" fill="#070707" d="M 262.5,196.5 C 264.5,196.5 266.5,196.5 268.5,196.5C 268.428,199.193 268.095,201.86 267.5,204.5C 270.05,211.851 271.383,219.518 271.5,227.5C 271.523,232.874 272.023,238.207 273,243.5C 273.498,240.183 273.665,236.85 273.5,233.5C 274.469,229.445 276.136,225.612 278.5,222C 277.061,219.695 277.561,217.862 280,216.5C 281.996,216.996 283.663,217.996 285,219.5C 286.011,218.663 287.178,218.33 288.5,218.5C 330.542,232.29 372.209,246.623 413.5,261.5C 414.429,262.315 415.429,263.148 416.5,264C 420.009,264.531 423.342,265.531 426.5,267C 309.833,267.667 193.167,267.667 76.5,267C 75.8333,266.667 75.1667,266.333 74.5,266C 75.365,264.641 76.365,263.474 77.5,262.5C 118.959,247.178 160.959,232.678 203.5,219C 206.03,218.109 208.363,216.942 210.5,215.5C 211.893,213.489 212.56,211.155 212.5,208.5C 211.82,202.534 211.82,196.534 212.5,190.5C 213.331,204.661 213.831,218.994 214,233.5C 214.791,232.255 215.291,230.922 215.5,229.5C 216.496,229.414 217.329,229.748 218,230.5C 218.333,229.167 218.667,227.833 219,226.5C 219.333,226.833 219.667,227.167 220,227.5C 220.433,225.336 219.933,223.336 218.5,221.5C 220.02,216.288 220.853,210.955 221,205.5C 221.308,204.692 221.808,204.025 222.5,203.5C 223.84,204.688 224.507,206.188 224.5,208C 222.754,212.71 222.254,217.543 223,222.5C 223.037,224.974 223.87,226.974 225.5,228.5C 226.11,229.391 226.443,230.391 226.5,231.5C 226.338,233.527 226.505,235.527 227,237.5C 230.039,243.206 234.372,244.873 240,242.5C 242.082,225.309 242.582,208.142 241.5,191C 245.114,190.055 248.781,189.388 252.5,189C 253.91,188.632 254.91,187.799 255.5,186.5C 259.75,185.774 263.75,184.441 267.5,182.5C 270.153,183.285 270.82,184.785 269.5,187C 266.26,188.4 262.927,189.567 259.5,190.5C 259.455,193.077 260.455,195.077 262.5,196.5 Z M 178.5,241.5 C 182.926,243.359 184.426,246.692 183,251.5C 180.149,257.697 175.316,259.864 168.5,258C 164.765,256.2 163.098,253.2 163.5,249C 163.526,242.641 166.693,239.141 173,238.5C 175.742,238.116 177.575,239.116 178.5,241.5 Z M 318.5,238.5 C 327.854,238.681 332.02,243.348 331,252.5C 325.431,259.674 319.097,260.341 312,254.5C 309.198,247.062 311.364,241.729 318.5,238.5 Z"/></g>
<g><path style="opacity:1" fill="#919191" d="M 313.5,185.5 C 315.39,188.508 317.057,191.508 318.5,194.5C 314.266,193.269 311.266,190.602 309.5,186.5C 310.822,186.33 311.989,186.663 313,187.5C 313.464,186.906 313.631,186.239 313.5,185.5 Z"/></g>
<g><path style="opacity:1" fill="#a5765f" d="M 277.5,188.5 C 277.483,190.565 277.15,192.565 276.5,194.5C 275.29,194.932 274.29,195.599 273.5,196.5C 272.833,206.833 272.167,217.167 271.5,227.5C 271.383,219.518 270.05,211.851 267.5,204.5C 268.095,201.86 268.428,199.193 268.5,196.5C 266.5,196.5 264.5,196.5 262.5,196.5C 263.335,195.057 264.668,194.057 266.5,193.5C 265.271,192.719 263.938,192.219 262.5,192C 267.032,190.713 271.032,188.546 274.5,185.5C 275.141,186.993 276.141,187.993 277.5,188.5 Z"/></g>
<g><path style="opacity:0.852" fill="#323131" d="M 283.5,171.5 C 285.199,174.151 286.866,174.151 288.5,171.5C 293.447,173.973 298.447,176.473 303.5,179C 304.711,182.148 306.711,184.648 309.5,186.5C 311.266,190.602 314.266,193.269 318.5,194.5C 320.757,194.962 322.757,195.962 324.5,197.5C 321.972,198.816 321.972,199.983 324.5,201C 328.152,201.499 331.818,201.665 335.5,201.5C 330.256,204.078 324.922,203.911 319.5,201C 311.133,196.265 304.799,189.598 300.5,181C 295.771,179.218 291.271,177.051 287,174.5C 285.127,178.675 282.627,182.342 279.5,185.5C 279.279,184.265 278.612,183.265 277.5,182.5C 279.925,181.351 279.925,180.684 277.5,180.5C 280.936,178.641 282.936,175.641 283.5,171.5 Z"/></g>
<g><path style="opacity:0.986" fill="#161616" d="M 276.5,194.5 C 281.915,195.194 286.915,196.86 291.5,199.5C 293.792,201.267 296.458,202.267 299.5,202.5C 318.435,208.034 337.102,214.367 355.5,221.5C 358.659,224.883 362.659,226.216 367.5,225.5C 393.095,234.421 418.762,243.254 444.5,252C 445.639,257.416 445.806,262.916 445,268.5C 441.379,268.642 437.545,268.642 433.5,268.5C 433.813,265.753 433.48,263.086 432.5,260.5C 380.951,242.65 329.284,224.983 277.5,207.5C 277.44,206.957 277.107,206.624 276.5,206.5C 275.203,208.973 275.203,211.307 276.5,213.5C 280.694,214.872 284.694,216.538 288.5,218.5C 287.178,218.33 286.011,218.663 285,219.5C 283.663,217.996 281.996,216.996 280,216.5C 277.561,217.862 277.061,219.695 278.5,222C 276.136,225.612 274.469,229.445 273.5,233.5C 273.5,221.167 273.5,208.833 273.5,196.5C 274.29,195.599 275.29,194.932 276.5,194.5 Z"/></g>
<g><path style="opacity:0.993" fill="#181818" d="M 212.5,190.5 C 211.82,196.534 211.82,202.534 212.5,208.5C 212.56,211.155 211.893,213.489 210.5,215.5C 210.799,213.396 210.466,211.396 209.5,209.5C 203.112,211.347 196.778,213.347 190.5,215.5C 188.076,215.192 185.743,215.526 183.5,216.5C 179.231,218.866 174.731,220.533 170,221.5C 169.667,221.167 169.333,220.833 169,220.5C 167.333,221.733 165.833,223.067 164.5,224.5C 142.742,232.532 120.742,240.199 98.5,247.5C 95.7814,247.397 93.1147,247.731 90.5,248.5C 88.8247,248.868 87.8247,249.868 87.5,251.5C 78.3618,255.067 69.0285,258.067 59.5,260.5C 59.5,263.167 59.5,265.833 59.5,268.5C 55.5,268.5 51.5,268.5 47.5,268.5C 47.1934,262.907 47.5268,257.407 48.5,252C 102.591,233.43 156.591,214.93 210.5,196.5C 211.323,193.023 211.823,189.356 212,185.5C 212.494,187.134 212.66,188.801 212.5,190.5 Z"/></g>
<g><path style="opacity:1" fill="#bb7e5e" d="M 226.5,231.5 C 226.443,230.391 226.11,229.391 225.5,228.5C 224.046,221.778 224.212,215.112 226,208.5C 228.299,206.663 230.466,204.83 232.5,203C 231.392,200.888 229.892,199.054 228,197.5C 227.186,195.098 227.353,192.765 228.5,190.5C 232.325,192.145 236.325,192.812 240.5,192.5C 239.317,209.149 238.317,225.815 237.5,242.5C 232.784,239.784 229.118,236.118 226.5,231.5 Z"/></g>
<g><path style="opacity:0.145" fill="#828282" d="M 291.5,199.5 C 294.542,199.733 297.208,200.733 299.5,202.5C 296.458,202.267 293.792,201.267 291.5,199.5 Z"/></g>
<g><path style="opacity:0.016" fill="#dec0bf" d="M 277.5,207.5 C 276.539,209.265 276.205,211.265 276.5,213.5C 275.203,211.307 275.203,208.973 276.5,206.5C 277.107,206.624 277.44,206.957 277.5,207.5 Z"/></g>
<g><path style="opacity:0.892" fill="#565656" d="M 190.5,215.5 C 182.185,219.273 173.518,222.273 164.5,224.5C 165.833,223.067 167.333,221.733 169,220.5C 169.333,220.833 169.667,221.167 170,221.5C 174.731,220.533 179.231,218.866 183.5,216.5C 185.743,215.526 188.076,215.192 190.5,215.5 Z"/></g>
<g><path style="opacity:1" fill="#5e4337" d="M 273.5,196.5 C 273.5,208.833 273.5,221.167 273.5,233.5C 273.665,236.85 273.498,240.183 273,243.5C 272.023,238.207 271.523,232.874 271.5,227.5C 272.167,217.167 272.833,206.833 273.5,196.5 Z"/></g>
<g><path style="opacity:0.852" fill="#5d5d5d" d="M 355.5,221.5 C 359.659,222.664 363.659,223.997 367.5,225.5C 362.659,226.216 358.659,224.883 355.5,221.5 Z"/></g>
<g><path style="opacity:1" fill="#ce8051" d="M 233.5,205.5 C 234.5,205.5 235.5,205.5 236.5,205.5C 236.5,215.167 236.5,224.833 236.5,234.5C 234.856,234.714 233.356,234.38 232,233.5C 231.413,229.647 231.746,225.98 233,222.5C 231.092,221.921 229.425,221.921 228,222.5C 227.333,219.833 227.333,217.167 228,214.5C 229.049,212.893 230.549,212.227 232.5,212.5C 232.674,210.139 233.007,207.806 233.5,205.5 Z"/></g>
<g><path style="opacity:0.936" fill="#343334" d="M 178.5,241.5 C 178.683,243.936 178.016,246.103 176.5,248C 180.597,249.324 181.264,251.49 178.5,254.5C 176.742,253.872 175.242,252.872 174,251.5C 173.293,253.081 172.46,254.581 171.5,256C 167.075,255.911 166.408,254.078 169.5,250.5C 168.329,248.831 166.996,247.331 165.5,246C 167.206,242.959 169.373,242.793 172,245.5C 173.324,242.756 175.491,241.423 178.5,241.5 Z"/></g>
<g><path style="opacity:0.816" fill="#616163" d="M 98.5,247.5 C 94.9738,248.974 91.3071,250.307 87.5,251.5C 87.8247,249.868 88.8247,248.868 90.5,248.5C 93.1147,247.731 95.7814,247.397 98.5,247.5 Z"/></g>
<g><path style="opacity:0.781" fill="#373636" d="M 322.5,241.5 C 324.346,241.222 325.68,241.889 326.5,243.5C 322.484,246.735 322.817,249.068 327.5,250.5C 328.89,252.495 328.39,253.828 326,254.5C 324.441,253.971 322.941,253.304 321.5,252.5C 320.996,255.522 319.329,256.689 316.5,256C 315.633,253.684 316.299,251.684 318.5,250C 315.597,249.044 314.097,247.211 314,244.5C 316.044,243.228 317.878,243.561 319.5,245.5C 320.524,244.148 321.524,242.815 322.5,241.5 Z"/></g>
<g><path style="opacity:0.439" fill="#222222" d="M 413.5,261.5 C 417.57,262.356 421.57,263.523 425.5,265C 426.973,265.71 427.64,266.876 427.5,268.5C 426.178,268.33 425.011,268.663 424,269.5C 304.902,268.834 185.735,268.168 66.5,267.5C 66.9767,266.522 67.6433,265.689 68.5,265C 71.3527,263.57 74.3527,262.737 77.5,262.5C 76.365,263.474 75.365,264.641 74.5,266C 75.1667,266.333 75.8333,266.667 76.5,267C 193.167,267.667 309.833,267.667 426.5,267C 423.342,265.531 420.009,264.531 416.5,264C 415.429,263.148 414.429,262.315 413.5,261.5 Z"/></g>
<g><path style="opacity:0.989" fill="#0e0e0e" d="M 154.5,287.5 C 154.665,290.518 154.498,293.518 154,296.5C 151.618,295.446 149.118,294.779 146.5,294.5C 139.646,294.176 132.979,294.509 126.5,295.5C 125.527,297.948 125.194,300.615 125.5,303.5C 128.385,303.806 131.052,303.473 133.5,302.5C 135.265,301.539 137.265,301.205 139.5,301.5C 141.453,307.074 142.12,313.074 141.5,319.5C 141.44,320.043 141.107,320.376 140.5,320.5C 136.675,318.855 132.675,318.188 128.5,318.5C 127.5,318.5 126.5,318.5 125.5,318.5C 125.5,321.167 125.5,323.833 125.5,326.5C 127.099,326.768 128.432,326.434 129.5,325.5C 135.555,325.662 141.555,325.162 147.5,324C 150.034,322.066 152.701,320.732 155.5,320C 156.137,322.243 156.47,324.576 156.5,327C 156.276,331.595 155.609,336.095 154.5,340.5C 138.84,341.832 123.173,343.165 107.5,344.5C 107.372,342.345 107.872,340.345 109,338.5C 109.667,320.833 109.667,303.167 109,285.5C 107.41,283.35 106.743,281.017 107,278.5C 122.756,277.509 138.589,277.175 154.5,277.5C 154.5,280.833 154.5,284.167 154.5,287.5 Z"/></g>
<g><path style="opacity:0.017" fill="#f1f1f1" d="M 213.5,279.5 C 219.979,278.509 226.646,278.176 233.5,278.5C 233.768,280.099 233.434,281.432 232.5,282.5C 232.5,281.5 232.5,280.5 232.5,279.5C 226.167,279.5 219.833,279.5 213.5,279.5 Z"/></g>
<g><path style="opacity:0.129" fill="#5d5d5d" d="M 388.5,279.5 C 394.987,278.346 401.654,278.179 408.5,279C 410.885,281.45 410.551,283.617 407.5,285.5C 407.739,283.533 407.406,281.699 406.5,280C 400.509,279.501 394.509,279.334 388.5,279.5 Z"/></g>
<g><path style="opacity:0.044" fill="#a1a1a1" d="M 31.5,280.5 C 39.9839,279.507 48.6506,279.174 57.5,279.5C 57.7845,281.415 57.4511,283.081 56.5,284.5C 56.5,283.167 56.5,281.833 56.5,280.5C 48.1667,280.5 39.8333,280.5 31.5,280.5 Z"/></g>
<g><path style="opacity:0.106" fill="#9c9c9c" d="M 75.5,280.5 C 83.9901,279.343 92.6567,279.176 101.5,280C 102.553,281.749 102.22,283.249 100.5,284.5C 100.5,283.167 100.5,281.833 100.5,280.5C 92.1667,280.5 83.8333,280.5 75.5,280.5 Z"/></g>
<g><path style="opacity:0.993" fill="#131313" d="M 208.5,283.5 C 208.5,288.833 208.5,294.167 208.5,299.5C 206.263,298.551 203.929,297.884 201.5,297.5C 198.67,297.037 196.003,296.371 193.5,295.5C 189.354,294.353 185.02,294.186 180.5,295C 179.944,295.383 179.611,295.883 179.5,296.5C 178.397,304.452 178.23,312.452 179,320.5C 180.822,322.045 182.989,322.712 185.5,322.5C 191.309,322.147 196.975,321.147 202.5,319.5C 204.5,319.167 206.5,318.833 208.5,318.5C 208.777,323.233 208.443,327.9 207.5,332.5C 206.271,333.281 204.938,333.781 203.5,334C 204.641,334.741 204.641,335.575 203.5,336.5C 201.031,337.168 198.698,337.835 196.5,338.5C 186.801,338.725 177.134,338.392 167.5,337.5C 163.961,336.11 162.127,333.443 162,329.5C 161.333,316.167 161.333,302.833 162,289.5C 163.5,284 167,280.5 172.5,279C 183.167,278.333 193.833,278.333 204.5,279C 206.751,279.748 208.084,281.248 208.5,283.5 Z"/></g>
<g><path style="opacity:0.993" fill="#0f0e0f" d="M 239.5,316.5 C 236.833,316.5 234.167,316.5 231.5,316.5C 231.177,322.69 231.51,328.69 232.5,334.5C 233.478,334.811 234.145,335.478 234.5,336.5C 228.613,337.186 222.78,337.853 217,338.5C 215.732,338.384 214.398,338.051 213,337.5C 214.107,329.043 214.607,320.376 214.5,311.5C 214.711,301.423 214.045,291.423 212.5,281.5C 212.543,280.584 212.876,279.917 213.5,279.5C 219.833,279.5 226.167,279.5 232.5,279.5C 232.5,280.5 232.5,281.5 232.5,282.5C 231.545,288.409 231.211,294.409 231.5,300.5C 236.975,301.489 242.642,301.822 248.5,301.5C 248.823,295.31 248.49,289.31 247.5,283.5C 245.78,282.249 245.447,280.749 246.5,279C 253.082,278.19 259.582,278.357 266,279.5C 264.557,296.77 264.224,314.104 265,331.5C 265.813,333.436 266.313,335.436 266.5,337.5C 259.5,337.5 252.5,337.5 245.5,337.5C 247.653,331.028 247.987,324.361 246.5,317.5C 244.253,316.626 241.92,316.292 239.5,316.5 Z"/></g>
<g><path style="opacity:0.994" fill="#0a0a0a" d="M 31.5,280.5 C 39.8333,280.5 48.1667,280.5 56.5,280.5C 56.5,281.833 56.5,283.167 56.5,284.5C 58.3825,291.816 61.0492,298.816 64.5,305.5C 64.2308,307.429 64.7308,309.095 66,310.5C 67.0386,309.756 67.5386,308.756 67.5,307.5C 69.4329,300.964 71.9329,294.63 75,288.5C 75.009,285.631 75.1757,282.964 75.5,280.5C 83.8333,280.5 92.1667,280.5 100.5,280.5C 100.5,281.833 100.5,283.167 100.5,284.5C 100.214,304.86 100.547,325.194 101.5,345.5C 94.8523,346.139 88.1856,346.473 81.5,346.5C 81.4326,345.041 81.7659,343.708 82.5,342.5C 83.6583,332.675 83.8249,322.675 83,312.5C 82.6481,314.247 82.1481,315.914 81.5,317.5C 79.4212,322.656 77.0879,327.656 74.5,332.5C 72.7773,334.78 72.1107,337.447 72.5,340.5C 68.1667,340.5 63.8333,340.5 59.5,340.5C 59.7076,338.08 59.3742,335.747 58.5,333.5C 60.641,331.747 59.9743,330.747 56.5,330.5C 54.2377,326.83 52.571,322.83 51.5,318.5C 51.0133,317.527 50.5133,316.527 50,315.5C 49.1751,325.675 49.3417,335.675 50.5,345.5C 51.3007,347.042 51.634,348.708 51.5,350.5C 48.1667,350.5 44.8333,350.5 41.5,350.5C 37.6707,351.069 34.3373,350.402 31.5,348.5C 31.3284,347.508 31.6618,346.842 32.5,346.5C 33.1665,336.339 33.4998,326.005 33.5,315.5C 33.4987,304.811 32.832,294.478 31.5,284.5C 30.1667,283.167 30.1667,281.833 31.5,280.5 Z"/></g>
<g><path style="opacity:0.995" fill="#0d0d0d" d="M 312.5,339.5 C 309.713,338.523 306.713,338.19 303.5,338.5C 304.055,334.988 303.388,331.988 301.5,329.5C 297.167,329.5 292.833,329.5 288.5,329.5C 288.5,330.5 288.5,331.5 288.5,332.5C 288.5,332.833 288.5,333.167 288.5,333.5C 288.5,334.833 288.5,336.167 288.5,337.5C 282.833,337.5 277.167,337.5 271.5,337.5C 270.167,337.5 268.833,337.5 267.5,337.5C 273.29,321.036 278.79,304.369 284,287.5C 284.769,284.901 284.602,282.401 283.5,280C 291.328,278.534 299.328,278.034 307.5,278.5C 306.671,281.469 306.505,284.469 307,287.5C 312.618,305.195 317.785,322.695 322.5,340C 318.973,340.808 315.64,340.641 312.5,339.5 Z M 294.5,307.5 C 296.267,309.792 297.267,312.458 297.5,315.5C 296.022,315.762 294.689,315.429 293.5,314.5C 294.374,312.253 294.708,309.92 294.5,307.5 Z"/></g>
<g><path style="opacity:0.996" fill="#141314" d="M 363.5,308.5 C 363.369,309.376 363.702,310.043 364.5,310.5C 365.821,302.009 365.821,293.676 364.5,285.5C 363.348,284.166 362.348,282.666 361.5,281C 361.905,280.055 362.572,279.388 363.5,279C 369.749,278.191 375.916,278.358 382,279.5C 381.408,299.473 381.408,319.473 382,339.5C 382.273,341.101 382.773,342.601 383.5,344C 382.4,345.023 381.067,345.523 379.5,345.5C 373.789,344.929 368.122,344.096 362.5,343C 362.927,340.872 362.427,338.705 361,336.5C 357.312,331.782 354.145,326.782 351.5,321.5C 351.573,319.973 350.906,318.973 349.5,318.5C 347.404,315.738 345.738,312.738 344.5,309.5C 344.44,308.957 344.107,308.624 343.5,308.5C 342.178,317.658 342.178,326.658 343.5,335.5C 344.304,337.189 345.304,338.855 346.5,340.5C 339.524,341.664 332.524,341.831 325.5,341C 324.524,338.853 324.691,336.686 326,334.5C 326.167,326.167 326.333,317.833 326.5,309.5C 326.601,299.352 326.101,289.352 325,279.5C 333.088,278.352 341.254,278.185 349.5,279C 349.076,281.81 349.576,284.644 351,287.5C 355.42,294.404 359.587,301.404 363.5,308.5 Z"/></g>
<g><path style="opacity:0.996" fill="#0f0f0f" d="M 388.5,279.5 C 394.509,279.334 400.509,279.501 406.5,280C 407.406,281.699 407.739,283.533 407.5,285.5C 407.333,303.836 407.5,322.17 408,340.5C 411.84,344.495 411.007,346.828 405.5,347.5C 400.851,346.85 396.184,346.35 391.5,346C 387.277,345.164 386.611,343.331 389.5,340.5C 390.117,340.389 390.617,340.056 391,339.5C 391.667,320.167 391.667,300.833 391,281.5C 389.187,282.609 388.354,281.942 388.5,279.5 Z"/></g>
<g><path style="opacity:0.994" fill="#101010" d="M 431.5,303.5 C 430.82,311.568 430.153,319.735 429.5,328C 433.139,332.083 437.472,333.25 442.5,331.5C 449.397,331.571 455.564,329.571 461,325.5C 461.772,325.645 462.439,325.978 463,326.5C 463.801,333.889 463.467,341.223 462,348.5C 458.128,351.538 453.961,352.205 449.5,350.5C 448.737,349.732 447.737,349.232 446.5,349C 440.5,348.667 434.5,348.333 428.5,348C 428.833,347.667 429.167,347.333 429.5,347C 427.301,345.417 424.968,345.25 422.5,346.5C 421.118,344.451 419.452,342.785 417.5,341.5C 416.91,340.234 416.41,338.901 416,337.5C 415.333,321.167 415.333,304.833 416,288.5C 418.206,282.808 422.373,279.641 428.5,279C 438.893,278.101 449.227,278.434 459.5,280C 461.768,281.558 462.934,283.724 463,286.5C 463.667,292.167 463.667,297.833 463,303.5C 462.333,304.167 461.667,304.833 461,305.5C 453.039,299.848 444.206,297.681 434.5,299C 433.219,300.409 432.219,301.909 431.5,303.5 Z"/></g>
<g><path style="opacity:0.522" fill="#9f9b9d" d="M 156.5,277.5 C 158.144,277.286 159.644,277.62 161,278.5C 161.422,280.355 161.922,282.189 162.5,284C 161.473,287.423 160.139,290.59 158.5,293.5C 157.533,288.198 156.867,282.865 156.5,277.5 Z"/></g>
<g><path style="opacity:0.773" fill="#aba9ab" d="M 236.5,279.5 C 240.223,279.358 241.056,280.691 239,283.5C 238.667,288.167 238.333,292.833 238,297.5C 236.644,298.38 235.144,298.714 233.5,298.5C 233.334,293.821 233.501,289.155 234,284.5C 234.366,282.548 235.199,280.882 236.5,279.5 Z"/></g>
<g><path style="opacity:0.251" fill="#49474a" d="M 364.5,285.5 C 365.821,293.676 365.821,302.009 364.5,310.5C 363.702,310.043 363.369,309.376 363.5,308.5C 364.492,301.018 364.825,293.352 364.5,285.5 Z"/></g>
<g><path style="opacity:0.318" fill="#a6a2a6" d="M 61.5,279.5 C 64.5785,281.074 65.2451,283.407 63.5,286.5C 65.4255,290.693 67.0922,295.026 68.5,299.5C 68.363,301.107 67.6964,302.441 66.5,303.5C 63.5601,298.821 61.0601,293.821 59,288.5C 57.7795,284.718 58.6128,281.718 61.5,279.5 Z"/></g>
<g><path style="opacity:0.576" fill="#9c9a9d" d="M 353.5,284.5 C 357.952,287.176 360.952,291.01 362.5,296C 361.809,297.067 361.309,298.234 361,299.5C 357.368,294.985 354.868,289.985 353.5,284.5 Z"/></g>
<g><path style="opacity:0.073" fill="#828282" d="M 193.5,295.5 C 188.77,295.283 184.103,295.617 179.5,296.5C 179.611,295.883 179.944,295.383 180.5,295C 185.02,294.186 189.354,294.353 193.5,295.5 Z"/></g>
<g><path style="opacity:0.516" fill="#b1afb1" d="M 270.5,278.5 C 272.022,279.191 273.022,280.358 273.5,282C 272.111,292.497 271.777,302.997 272.5,313.5C 272.698,318.676 271.864,323.676 270,328.5C 269.311,329.357 268.478,330.023 267.5,330.5C 266.334,317.513 266.167,304.513 267,291.5C 267.325,286.809 268.492,282.476 270.5,278.5 Z"/></g>
<g><path style="opacity:0.384" fill="#565556" d="M 154.5,287.5 C 156.469,291.134 156.802,294.967 155.5,299C 152.552,297.614 149.552,296.114 146.5,294.5C 149.118,294.779 151.618,295.446 154,296.5C 154.498,293.518 154.665,290.518 154.5,287.5 Z"/></g>
<g><path style="opacity:0.853" fill="#b2afb0" d="M 463.5,280.5 C 467.224,280.05 469.391,281.717 470,285.5C 470.831,291.859 470.664,298.193 469.5,304.5C 468.5,305.833 467.5,305.833 466.5,304.5C 465.831,296.438 464.831,288.438 463.5,280.5 Z"/></g>
<g><path style="opacity:0.165" fill="#5f5f5f" d="M 208.5,283.5 C 209.489,288.975 209.822,294.642 209.5,300.5C 206.374,300.515 203.707,299.515 201.5,297.5C 203.929,297.884 206.263,298.551 208.5,299.5C 208.5,294.167 208.5,288.833 208.5,283.5 Z"/></g>
<g><path style="opacity:0.041" fill="#8a898a" d="M 247.5,283.5 C 248.49,289.31 248.823,295.31 248.5,301.5C 242.642,301.822 236.975,301.489 231.5,300.5C 236.833,300.5 242.167,300.5 247.5,300.5C 247.5,294.833 247.5,289.167 247.5,283.5 Z"/></g>
<g><path style="opacity:0.217" fill="#7a7a7b" d="M 126.5,295.5 C 126.5,297.833 126.5,300.167 126.5,302.5C 128.833,302.5 131.167,302.5 133.5,302.5C 131.052,303.473 128.385,303.806 125.5,303.5C 125.194,300.615 125.527,297.948 126.5,295.5 Z"/></g>
<g><path style="opacity:0.145" fill="#818082" d="M 139.5,301.5 C 140.209,300.596 141.209,300.263 142.5,300.5C 142.823,307.022 142.49,313.355 141.5,319.5C 142.12,313.074 141.453,307.074 139.5,301.5 Z"/></g>
<g><path style="opacity:0.078" fill="#868686" d="M 64.5,305.5 C 65.2679,306.263 65.7679,307.263 66,308.5C 66.3826,307.944 66.8826,307.611 67.5,307.5C 67.5386,308.756 67.0386,309.756 66,310.5C 64.7308,309.095 64.2308,307.429 64.5,305.5 Z"/></g>
<g><path style="opacity:0.38" fill="#989598" d="M 180.5,297.5 C 181.833,297.5 183.167,297.5 184.5,297.5C 184.5,305.167 184.5,312.833 184.5,320.5C 183.167,320.5 181.833,320.5 180.5,320.5C 180.382,312.653 180.382,304.987 180.5,297.5 Z"/></g>
<g><path style="opacity:0.688" fill="#afadae" d="M 435.5,299.5 C 436.5,299.5 437.5,299.5 438.5,299.5C 438.5,309.5 438.5,319.5 438.5,329.5C 436.61,329.703 435.11,329.037 434,327.5C 433.333,318.833 433.333,310.167 434,301.5C 434.717,300.956 435.217,300.289 435.5,299.5 Z"/></g>
<g><path style="opacity:0.061" fill="#8b8a8a" d="M 146.5,301.5 C 147.993,302.312 148.66,303.645 148.5,305.5C 148.135,310.008 147.302,314.341 146,318.5C 144.882,315.861 144.382,313.027 144.5,310C 144.611,306.895 145.278,304.062 146.5,301.5 Z"/></g>
<g><path style="opacity:0.102" fill="#686469" d="M 103.5,292.5 C 104.496,292.414 105.329,292.748 106,293.5C 106.667,306.5 106.667,319.5 106,332.5C 104.605,333.815 103.605,333.481 103,331.5C 102.204,318.455 102.371,305.455 103.5,292.5 Z"/></g>
<g><path style="opacity:0.004" fill="#f6f6f6" d="M 82.5,342.5 C 82.8261,333.983 82.4927,325.65 81.5,317.5C 82.1481,315.914 82.6481,314.247 83,312.5C 83.8249,322.675 83.6583,332.675 82.5,342.5 Z"/></g>
<g><path style="opacity:0.011" fill="#f1f1f4" d="M 51.5,318.5 C 50.5067,327.318 50.1734,336.318 50.5,345.5C 49.3417,335.675 49.1751,325.675 50,315.5C 50.5133,316.527 51.0133,317.527 51.5,318.5 Z"/></g>
<g><path style="opacity:0.031" fill="#bbbbbb" d="M 349.5,318.5 C 350.906,318.973 351.573,319.973 351.5,321.5C 350.833,321.167 350.167,320.833 349.5,320.5C 349.5,319.833 349.5,319.167 349.5,318.5 Z"/></g>
<g><path style="opacity:0.33" fill="#515052" d="M 388.5,279.5 C 388.354,281.942 389.187,282.609 391,281.5C 391.667,300.833 391.667,320.167 391,339.5C 390.617,340.056 390.117,340.389 389.5,340.5C 390.627,322.531 390.793,304.531 390,286.5C 388.924,284.933 388.091,283.266 387.5,281.5C 387.543,280.584 387.876,279.917 388.5,279.5 Z"/></g>
<g><path style="opacity:0.567" fill="#aaa9aa" d="M 309.5,278.5 C 310.833,278.5 312.167,278.5 313.5,278.5C 315.583,293.167 319.083,307.5 324,321.5C 324.667,325.833 324.667,330.167 324,334.5C 322.139,332.112 320.806,329.446 320,326.5C 316.946,313.669 313.279,301.002 309,288.5C 308.253,285.076 308.42,281.743 309.5,278.5 Z"/></g>
<g><path style="opacity:0.149" fill="#646263" d="M 344.5,309.5 C 343.507,317.984 343.174,326.651 343.5,335.5C 342.178,326.658 342.178,317.658 343.5,308.5C 344.107,308.624 344.44,308.957 344.5,309.5 Z"/></g>
<g><path style="opacity:0.033" fill="#afafaf" d="M 239.5,316.5 C 237.393,317.468 235.059,317.802 232.5,317.5C 232.5,323.167 232.5,328.833 232.5,334.5C 231.51,328.69 231.177,322.69 231.5,316.5C 234.167,316.5 236.833,316.5 239.5,316.5 Z"/></g>
<g><path style="opacity:0.055" fill="#b6b6b6" d="M 128.5,318.5 C 126.852,320.456 126.185,322.789 126.5,325.5C 127.5,325.5 128.5,325.5 129.5,325.5C 128.432,326.434 127.099,326.768 125.5,326.5C 125.5,323.833 125.5,321.167 125.5,318.5C 126.5,318.5 127.5,318.5 128.5,318.5 Z"/></g>
<g><path style="opacity:0.114" fill="#736e71" d="M 384.5,283.5 C 386.777,284.862 387.11,286.695 385.5,289C 385.862,290.225 386.362,291.391 387,292.5C 387.667,306.5 387.667,320.5 387,334.5C 386.25,335.126 385.416,335.626 384.5,336C 386.037,337.11 386.703,338.61 386.5,340.5C 385.5,340.5 384.5,340.5 383.5,340.5C 383.18,321.424 383.513,302.424 384.5,283.5 Z"/></g>
<g><path style="opacity:0.949" fill="#a4a3a6" d="M 234.5,318.5 C 235.833,318.5 237.167,318.5 238.5,318.5C 238.082,324.998 238.748,331.332 240.5,337.5C 238.019,337.677 236.186,336.677 235,334.5C 234.501,329.177 234.334,323.844 234.5,318.5 Z"/></g>
<g><path style="opacity:0.059" fill="#7a7a7a" d="M 79.5,327.5 C 80.1386,328.097 80.472,328.93 80.5,330C 80.4654,333.096 79.4654,333.762 77.5,332C 78.0439,330.415 78.7106,328.915 79.5,327.5 Z"/></g>
<g><path style="opacity:0.011" fill="#edeaec" d="M 301.5,329.5 C 301.5,329.833 301.5,330.167 301.5,330.5C 296.847,329.999 292.514,330.666 288.5,332.5C 288.5,331.5 288.5,330.5 288.5,329.5C 292.833,329.5 297.167,329.5 301.5,329.5 Z"/></g>
<g><path style="opacity:0.973" fill="#aeaaab" d="M 349.5,320.5 C 349.935,327.261 350.935,333.928 352.5,340.5C 348.939,341.149 346.772,339.482 346,335.5C 345.17,329.804 345.337,324.137 346.5,318.5C 347.518,319.193 348.518,319.859 349.5,320.5 Z"/></g>
<g><path style="opacity:0.874" fill="#ada9ab" d="M 412.5,278.5 C 416.393,279.283 417.227,281.283 415,284.5C 414.5,290.5 414,296.5 413.5,302.5C 413.96,312.815 414.127,323.149 414,333.5C 414.038,337.563 414.872,341.397 416.5,345C 415.892,345.87 415.059,346.37 414,346.5C 412.435,345.048 411.102,343.381 410,341.5C 409.333,322.833 409.333,304.167 410,285.5C 410.991,283.192 411.824,280.859 412.5,278.5 Z"/></g>
<g><path style="opacity:0.369" fill="#454344" d="M 431.5,303.5 C 431.094,311.917 431.594,320.251 433,328.5C 435.642,331.029 438.808,332.029 442.5,331.5C 437.472,333.25 433.139,332.083 429.5,328C 430.153,319.735 430.82,311.568 431.5,303.5 Z"/></g>
<g><path style="opacity:0.102" fill="#626061" d="M 301.5,329.5 C 303.388,331.988 304.055,334.988 303.5,338.5C 306.713,338.19 309.713,338.523 312.5,339.5C 309.15,339.665 305.817,339.498 302.5,339C 302.398,336.181 302.065,333.348 301.5,330.5C 301.5,330.167 301.5,329.833 301.5,329.5 Z"/></g>
<g><path style="opacity:0.961" fill="#434343" d="M 196.5,338.5 C 198.698,337.835 201.031,337.168 203.5,336.5C 204.641,335.575 204.641,334.741 203.5,334C 204.938,333.781 206.271,333.281 207.5,332.5C 208.443,327.9 208.777,323.233 208.5,318.5C 206.5,318.833 204.5,319.167 202.5,319.5C 204.365,317.466 206.532,316.799 209,317.5C 209.667,323.167 209.667,328.833 209,334.5C 205.613,338.039 201.447,339.372 196.5,338.5 Z"/></g>
<g><path style="opacity:0.22" fill="#424242" d="M 31.5,284.5 C 32.832,294.478 33.4987,304.811 33.5,315.5C 33.4998,326.005 33.1665,336.339 32.5,346.5C 32.8211,325.758 32.4878,305.091 31.5,284.5 Z"/></g>
<g><path style="opacity:0.094" fill="#87878a" d="M 74.5,332.5 C 74.1977,335.373 73.531,338.039 72.5,340.5C 72.1107,337.447 72.7773,334.78 74.5,332.5 Z"/></g>
<g><path style="opacity:0.059" fill="#888889" d="M 158.5,325.5 C 160.015,328.829 161.349,332.329 162.5,336C 158.437,340.664 156.77,339.664 157.5,333C 157.625,330.449 157.958,327.949 158.5,325.5 Z"/></g>
<g><path style="opacity:0.639" fill="#9f9b9f" d="M 51.5,328.5 C 53.335,329.122 54.5017,330.456 55,332.5C 55.3216,337.571 56.1549,342.571 57.5,347.5C 56.6798,349.111 55.3464,349.778 53.5,349.5C 51.666,342.724 50.9993,335.724 51.5,328.5 Z"/></g>
<g><path style="opacity:0.165" fill="#9f9d9f" d="M 288.5,333.5 C 289.451,334.919 289.784,336.585 289.5,338.5C 283.31,338.823 277.31,338.49 271.5,337.5C 277.167,337.5 282.833,337.5 288.5,337.5C 288.5,336.167 288.5,334.833 288.5,333.5 Z"/></g>
<g><path style="opacity:0.047" fill="#5b5f63" d="M 103.5,337.5 C 105.97,338.36 106.137,339.694 104,341.5C 102.232,340.318 102.065,338.985 103.5,337.5 Z"/></g>
<g><path style="opacity:0.231" fill="#838181" d="M 167.5,337.5 C 177.134,338.392 186.801,338.725 196.5,338.5C 187.676,339.657 178.676,339.824 169.5,339C 168.584,338.722 167.918,338.222 167.5,337.5 Z"/></g>
<g><path style="opacity:0.384" fill="#b0afaf" d="M 466.5,325.5 C 468.124,325.36 469.29,326.027 470,327.5C 470.667,333.5 470.667,339.5 470,345.5C 469.418,349.251 467.251,350.918 463.5,350.5C 464.404,346.045 465.071,341.545 465.5,337C 463.921,332.96 464.254,329.126 466.5,325.5 Z"/></g>
<g><path style="opacity:0.407" fill="#686567" d="M 56.5,330.5 C 59.9743,330.747 60.641,331.747 58.5,333.5C 59.3742,335.747 59.7076,338.08 59.5,340.5C 63.8333,340.5 68.1667,340.5 72.5,340.5C 68.03,341.486 63.3633,341.819 58.5,341.5C 58.5842,337.669 57.9175,334.002 56.5,330.5 Z"/></g>
<g><path style="opacity:0.478" fill="#908f8f" d="M 417.5,341.5 C 419.452,342.785 421.118,344.451 422.5,346.5C 419.856,345.856 418.189,344.189 417.5,341.5 Z"/></g>
<g><path style="opacity:0.773" fill="#2e2d2e" d="M 449.5,350.5 C 440.68,351.029 432.013,350.196 423.5,348C 422.944,347.617 422.611,347.117 422.5,346.5C 424.968,345.25 427.301,345.417 429.5,347C 429.167,347.333 428.833,347.667 428.5,348C 434.5,348.333 440.5,348.667 446.5,349C 447.737,349.232 448.737,349.732 449.5,350.5 Z"/></g>
<g><path style="opacity:0.055" fill="#8a8a8a" d="M 31.5,348.5 C 34.3373,350.402 37.6707,351.069 41.5,350.5C 38.0381,351.482 34.3714,351.815 30.5,351.5C 30.2627,350.209 30.596,349.209 31.5,348.5 Z"/></g>
<g><path style="opacity:0.995" fill="#0e0e0e" d="M 424.5,365.5 C 422.214,365.595 420.214,366.262 418.5,367.5C 406.416,371.706 394.416,376.206 382.5,381C 364.438,386.743 346.438,392.576 328.5,398.5C 326.143,398.337 323.81,398.503 321.5,399C 316.007,401.721 310.341,404.054 304.5,406C 302.101,406.711 299.768,406.544 297.5,405.5C 296.396,406.631 296.729,407.465 298.5,408C 296.376,409.582 294.21,409.749 292,408.5C 290.28,409.384 289.114,410.717 288.5,412.5C 283.675,414.331 278.675,415.997 273.5,417.5C 271.447,417.402 269.78,418.069 268.5,419.5C 266.442,420.933 264.108,421.6 261.5,421.5C 257.349,421.099 254.015,422.433 251.5,425.5C 250.085,426.289 248.585,426.956 247,427.5C 238.086,424.289 229.253,420.956 220.5,417.5C 217.916,415.528 214.916,414.528 211.5,414.5C 195.435,409.924 179.768,404.59 164.5,398.5C 162.562,396.837 160.228,396.171 157.5,396.5C 154.925,394.667 152.425,392.667 150,390.5C 149.692,391.308 149.192,391.975 148.5,392.5C 146.382,391.054 144.049,390.387 141.5,390.5C 140.167,390.167 138.833,389.833 137.5,389.5C 137.144,388.13 136.31,387.13 135,386.5C 131.847,385.437 128.68,384.437 125.5,383.5C 125.135,382.098 124.301,381.098 123,380.5C 119.185,381.561 115.351,381.561 111.5,380.5C 102.851,377.506 94.184,374.506 85.5,371.5C 84.713,369.896 83.3797,369.229 81.5,369.5C 79.7451,368.265 78.0785,366.765 76.5,365C 78.3187,364.26 79.6521,363.093 80.5,361.5C 195.84,346.474 311.174,346.974 426.5,363C 427.609,364.813 426.942,365.646 424.5,365.5 Z M 333.5,364.5 C 334.369,366.717 334.702,369.05 334.5,371.5C 332.083,374.405 332.083,377.405 334.5,380.5C 333.311,381.429 331.978,381.762 330.5,381.5C 331.028,376.189 328.694,373.855 323.5,374.5C 323.5,376.833 323.5,379.167 323.5,381.5C 322.5,381.5 321.5,381.5 320.5,381.5C 320.5,375.5 320.5,369.5 320.5,363.5C 325.032,363.182 329.366,363.515 333.5,364.5 Z M 311.5,363.5 C 312.833,363.5 314.167,363.5 315.5,363.5C 315.5,369.5 315.5,375.5 315.5,381.5C 314.167,381.5 312.833,381.5 311.5,381.5C 311.5,375.5 311.5,369.5 311.5,363.5 Z M 297.5,363.5 C 299.5,363.5 301.5,363.5 303.5,363.5C 303.7,369.599 305.034,375.432 307.5,381C 306.5,381.667 305.5,381.667 304.5,381C 302.49,378.487 300.157,377.987 297.5,379.5C 296.134,381.351 294.467,381.684 292.5,380.5C 294.375,374.878 296.041,369.212 297.5,363.5 Z M 253.5,363.5 C 255.268,366.162 255.935,369.162 255.5,372.5C 252.018,374.095 251.685,376.095 254.5,378.5C 254.414,379.496 254.748,380.329 255.5,381C 254.207,381.49 252.873,381.657 251.5,381.5C 251.737,380.209 251.404,379.209 250.5,378.5C 249.766,377.292 249.433,375.959 249.5,374.5C 247.833,374.5 246.167,374.5 244.5,374.5C 244.5,376.833 244.5,379.167 244.5,381.5C 243.5,381.5 242.5,381.5 241.5,381.5C 241.5,375.5 241.5,369.5 241.5,363.5C 245.5,363.5 249.5,363.5 253.5,363.5 Z M 227.5,363.5 C 228.833,364.5 230.167,365.5 231.5,366.5C 231.985,371.729 231.318,376.729 229.5,381.5C 224.86,382.025 220.527,381.358 216.5,379.5C 216.334,375.154 216.501,370.821 217,366.5C 219.897,363.769 223.397,362.769 227.5,363.5 Z M 211.5,366.5 C 209.833,366.5 208.167,366.5 206.5,366.5C 206.5,371.5 206.5,376.5 206.5,381.5C 205.5,381.5 204.5,381.5 203.5,381.5C 203.5,376.5 203.5,371.5 203.5,366.5C 201.167,366.5 198.833,366.5 196.5,366.5C 196.5,365.5 196.5,364.5 196.5,363.5C 201.833,363.5 207.167,363.5 212.5,363.5C 212.737,364.791 212.404,365.791 211.5,366.5 Z M 178.5,363.5 C 178.833,363.5 179.167,363.5 179.5,363.5C 180.487,368.305 180.821,373.305 180.5,378.5C 183.5,378.5 186.5,378.5 189.5,378.5C 189.5,373.5 189.5,368.5 189.5,363.5C 190.833,363.5 192.167,363.5 193.5,363.5C 193.666,368.844 193.499,374.177 193,379.5C 192.283,380.044 191.783,380.711 191.5,381.5C 187.486,381.666 183.486,381.499 179.5,381C 178.619,380.292 177.953,379.458 177.5,378.5C 177.179,373.305 177.513,368.305 178.5,363.5 Z M 172.5,372.5 C 172.171,375.228 172.837,377.562 174.5,379.5C 174.38,380.586 173.713,381.253 172.5,381.5C 171.261,381.058 170.261,380.391 169.5,379.5C 167.735,378.539 165.735,378.205 163.5,378.5C 163.5,379.5 163.5,380.5 163.5,381.5C 162.127,381.657 160.793,381.49 159.5,381C 161.652,376.416 162.985,371.583 163.5,366.5C 164.404,365.791 164.737,364.791 164.5,363.5C 166.167,363.5 167.833,363.5 169.5,363.5C 169.528,366.916 170.528,369.916 172.5,372.5 Z M 290.5,363.5 C 290.5,363.833 290.5,364.167 290.5,364.5C 291.024,366.306 291.691,367.972 292.5,369.5C 290.395,374.102 286.728,375.769 281.5,374.5C 281.5,376.833 281.5,379.167 281.5,381.5C 280.167,381.5 278.833,381.5 277.5,381.5C 277.5,375.5 277.5,369.5 277.5,363.5C 281.833,363.5 286.167,363.5 290.5,363.5 Z M 259.5,363.5 C 264.263,363.226 268.93,363.559 273.5,364.5C 270.663,366.402 267.329,367.069 263.5,366.5C 263.5,367.833 263.5,369.167 263.5,370.5C 265.5,370.5 267.5,370.5 269.5,370.5C 269.5,371.833 269.5,373.167 269.5,374.5C 267.5,374.5 265.5,374.5 263.5,374.5C 263.5,375.833 263.5,377.167 263.5,378.5C 266.833,378.5 270.167,378.5 273.5,378.5C 273.5,379.5 273.5,380.5 273.5,381.5C 268.833,381.5 264.167,381.5 259.5,381.5C 259.5,375.5 259.5,369.5 259.5,363.5 Z M 244.5,396.5 C 255.791,396.306 259.624,401.64 256,412.5C 248.49,418.63 242.156,417.63 237,409.5C 236.428,403.303 238.928,398.97 244.5,396.5 Z"/></g>
<g><path style="opacity:0.947" fill="#323133" d="M 80.5,361.5 C 79.6521,363.093 78.3187,364.26 76.5,365C 78.0785,366.765 79.7451,368.265 81.5,369.5C 76.3258,368.461 71.3258,366.794 66.5,364.5C 66.7093,363.914 67.0426,363.414 67.5,363C 71.8134,362.265 76.1467,361.765 80.5,361.5 Z"/></g>
<g><path style="opacity:1" fill="#444344" d="M 172.5,372.5 C 170.528,369.916 169.528,366.916 169.5,363.5C 167.833,363.5 166.167,363.5 164.5,363.5C 164.737,364.791 164.404,365.791 163.5,366.5C 163.34,364.801 163.506,363.134 164,361.5C 166.42,362.488 168.753,362.155 171,360.5C 171.309,361.766 171.809,362.933 172.5,364C 171.477,366.774 171.477,369.607 172.5,372.5 Z"/></g>
<g><path style="opacity:0.994" fill="#161616" d="M 432.5,370.5 C 434.344,368.721 435.01,366.388 434.5,363.5C 437.962,362.518 441.629,362.185 445.5,362.5C 445.821,368.026 445.488,373.36 444.5,378.5C 443.828,377.733 442.995,377.066 442,376.5C 438.54,381.125 434.04,382.625 428.5,381C 429.167,381.333 429.833,381.667 430.5,382C 426.833,383 423.167,384 419.5,385C 417.253,386.277 415.253,387.777 413.5,389.5C 407.693,392.07 401.693,394.07 395.5,395.5C 387.42,396.151 380.086,398.485 373.5,402.5C 371.473,402.338 369.473,402.505 367.5,403C 363.844,403.825 360.844,405.658 358.5,408.5C 348.759,412.414 338.759,415.747 328.5,418.5C 323.83,419.221 319.163,420.054 314.5,421C 314.833,421.333 315.167,421.667 315.5,422C 312.576,422.988 309.576,423.654 306.5,424C 301.926,425.792 297.592,427.959 293.5,430.5C 278.307,436.509 262.807,441.843 247,446.5C 213.43,435.403 179.93,424.236 146.5,413C 120.043,403.643 93.7093,394.143 67.5,384.5C 65.8984,382.926 63.8984,382.259 61.5,382.5C 56.9281,382.053 52.5947,380.72 48.5,378.5C 47.3377,373.533 47.1711,368.533 48,363.5C 51.4085,362.378 54.9085,362.211 58.5,363C 59.1667,365.333 59.8333,367.667 60.5,370C 122.324,391.84 184.491,413.007 247,433.5C 308.919,412.729 370.752,391.729 432.5,370.5 Z M 333.5,364.5 C 334.369,366.717 334.702,369.05 334.5,371.5C 332.083,374.405 332.083,377.405 334.5,380.5C 333.311,381.429 331.978,381.762 330.5,381.5C 331.028,376.189 328.694,373.855 323.5,374.5C 323.5,376.833 323.5,379.167 323.5,381.5C 322.5,381.5 321.5,381.5 320.5,381.5C 320.5,375.5 320.5,369.5 320.5,363.5C 325.032,363.182 329.366,363.515 333.5,364.5 Z M 311.5,363.5 C 311.5,369.5 311.5,375.5 311.5,381.5C 312.833,381.5 314.167,381.5 315.5,381.5C 315.5,375.5 315.5,369.5 315.5,363.5C 314.167,363.5 312.833,363.5 311.5,363.5 Z M 297.5,363.5 C 299.5,363.5 301.5,363.5 303.5,363.5C 303.7,369.599 305.034,375.432 307.5,381C 306.5,381.667 305.5,381.667 304.5,381C 302.49,378.487 300.157,377.987 297.5,379.5C 296.134,381.351 294.467,381.684 292.5,380.5C 294.375,374.878 296.041,369.212 297.5,363.5 Z M 253.5,363.5 C 255.268,366.162 255.935,369.162 255.5,372.5C 252.018,374.095 251.685,376.095 254.5,378.5C 254.414,379.496 254.748,380.329 255.5,381C 254.207,381.49 252.873,381.657 251.5,381.5C 251.737,380.209 251.404,379.209 250.5,378.5C 249.766,377.292 249.433,375.959 249.5,374.5C 247.833,374.5 246.167,374.5 244.5,374.5C 244.5,376.833 244.5,379.167 244.5,381.5C 243.5,381.5 242.5,381.5 241.5,381.5C 241.5,375.5 241.5,369.5 241.5,363.5C 245.5,363.5 249.5,363.5 253.5,363.5 Z M 227.5,363.5 C 228.833,364.5 230.167,365.5 231.5,366.5C 231.985,371.729 231.318,376.729 229.5,381.5C 224.86,382.025 220.527,381.358 216.5,379.5C 216.334,375.154 216.501,370.821 217,366.5C 219.897,363.769 223.397,362.769 227.5,363.5 Z M 211.5,366.5 C 209.833,366.5 208.167,366.5 206.5,366.5C 206.5,371.5 206.5,376.5 206.5,381.5C 205.5,381.5 204.5,381.5 203.5,381.5C 203.5,376.5 203.5,371.5 203.5,366.5C 201.167,366.5 198.833,366.5 196.5,366.5C 196.5,365.5 196.5,364.5 196.5,363.5C 201.833,363.5 207.167,363.5 212.5,363.5C 212.737,364.791 212.404,365.791 211.5,366.5 Z M 178.5,363.5 C 178.833,363.5 179.167,363.5 179.5,363.5C 180.487,368.305 180.821,373.305 180.5,378.5C 183.5,378.5 186.5,378.5 189.5,378.5C 189.5,373.5 189.5,368.5 189.5,363.5C 190.833,363.5 192.167,363.5 193.5,363.5C 193.666,368.844 193.499,374.177 193,379.5C 192.283,380.044 191.783,380.711 191.5,381.5C 187.486,381.666 183.486,381.499 179.5,381C 178.619,380.292 177.953,379.458 177.5,378.5C 177.179,373.305 177.513,368.305 178.5,363.5 Z M 172.5,372.5 C 172.171,375.228 172.837,377.562 174.5,379.5C 174.38,380.586 173.713,381.253 172.5,381.5C 171.261,381.058 170.261,380.391 169.5,379.5C 167.735,378.539 165.735,378.205 163.5,378.5C 163.5,379.5 163.5,380.5 163.5,381.5C 162.127,381.657 160.793,381.49 159.5,381C 161.652,376.416 162.985,371.583 163.5,366.5C 164.404,365.791 164.737,364.791 164.5,363.5C 166.167,363.5 167.833,363.5 169.5,363.5C 169.528,366.916 170.528,369.916 172.5,372.5 Z M 290.5,363.5 C 290.5,363.833 290.5,364.167 290.5,364.5C 291.024,366.306 291.691,367.972 292.5,369.5C 290.395,374.102 286.728,375.769 281.5,374.5C 281.5,376.833 281.5,379.167 281.5,381.5C 280.167,381.5 278.833,381.5 277.5,381.5C 277.5,375.5 277.5,369.5 277.5,363.5C 281.833,363.5 286.167,363.5 290.5,363.5 Z M 259.5,363.5 C 264.263,363.226 268.93,363.559 273.5,364.5C 270.663,366.402 267.329,367.069 263.5,366.5C 263.5,367.833 263.5,369.167 263.5,370.5C 265.5,370.5 267.5,370.5 269.5,370.5C 269.5,371.833 269.5,373.167 269.5,374.5C 267.5,374.5 265.5,374.5 263.5,374.5C 263.5,375.833 263.5,377.167 263.5,378.5C 266.833,378.5 270.167,378.5 273.5,378.5C 273.5,379.5 273.5,380.5 273.5,381.5C 268.833,381.5 264.167,381.5 259.5,381.5C 259.5,375.5 259.5,369.5 259.5,363.5 Z M 244.5,396.5 C 238.928,398.97 236.428,403.303 237,409.5C 242.156,417.63 248.49,418.63 256,412.5C 259.624,401.64 255.791,396.306 244.5,396.5 Z"/></g>
<g><path style="opacity:0.031" fill="#d2d2d2" d="M 434.5,363.5 C 435.01,366.388 434.344,368.721 432.5,370.5C 433.065,368.048 433.732,365.715 434.5,363.5 Z"/></g>
<g><path style="opacity:0.039" fill="#c7c7c8" d="M 178.5,363.5 C 177.513,368.305 177.179,373.305 177.5,378.5C 177.167,378.5 176.833,378.5 176.5,378.5C 176.172,373.125 176.505,367.792 177.5,362.5C 178.107,362.624 178.44,362.957 178.5,363.5 Z"/></g>
<g><path style="opacity:0.043" fill="#c4c4c4" d="M 333.5,364.5 C 334.725,365.152 335.392,366.319 335.5,368C 335.486,369.385 335.152,370.551 334.5,371.5C 334.702,369.05 334.369,366.717 333.5,364.5 Z"/></g>
<g><path style="opacity:0.082" fill="#a9a9a9" d="M 424.5,365.5 C 422.898,367.074 420.898,367.741 418.5,367.5C 420.214,366.262 422.214,365.595 424.5,365.5 Z"/></g>
<g><path style="opacity:0.947" fill="#323232" d="M 244.5,366.5 C 246.833,366.5 249.167,366.5 251.5,366.5C 251.5,367.833 251.5,369.167 251.5,370.5C 249.167,370.5 246.833,370.5 244.5,370.5C 244.5,369.167 244.5,367.833 244.5,366.5 Z"/></g>
<g><path style="opacity:0.038" fill="#818181" d="M 253.5,363.5 C 254.496,363.414 255.329,363.748 256,364.5C 256.801,367.367 256.634,370.034 255.5,372.5C 255.935,369.162 255.268,366.162 253.5,363.5 Z"/></g>
<g><path style="opacity:0.416" fill="#323032" d="M 227.5,363.5 C 223.397,362.769 219.897,363.769 217,366.5C 216.501,370.821 216.334,375.154 216.5,379.5C 215.676,375.688 215.176,371.688 215,367.5C 213.485,369.905 212.318,369.572 211.5,366.5C 212.404,365.791 212.737,364.791 212.5,363.5C 207.167,363.5 201.833,363.5 196.5,363.5C 196.5,364.5 196.5,365.5 196.5,366.5C 198.833,366.5 201.167,366.5 203.5,366.5C 203.5,371.5 203.5,376.5 203.5,381.5C 201.564,377.285 200.897,372.619 201.5,367.5C 199.167,368.167 196.833,368.833 194.5,369.5C 194.665,373.182 194.499,376.848 194,380.5C 193.329,381.252 192.496,381.586 191.5,381.5C 191.783,380.711 192.283,380.044 193,379.5C 193.499,374.177 193.666,368.844 193.5,363.5C 192.167,363.5 190.833,363.5 189.5,363.5C 189.5,368.5 189.5,373.5 189.5,378.5C 186.5,378.5 183.5,378.5 180.5,378.5C 180.821,373.305 180.487,368.305 179.5,363.5C 179.56,362.957 179.893,362.624 180.5,362.5C 181.328,366.796 181.828,371.129 182,375.5C 183.699,376.406 185.533,376.739 187.5,376.5C 187.5,371.5 187.5,366.5 187.5,361.5C 196.467,361.102 205.301,361.769 214,363.5C 214.667,362.833 215.333,362.167 216,361.5C 219.935,362.138 223.769,362.804 227.5,363.5 Z"/></g>
<g><path style="opacity:0.945" fill="#222224" d="M 220.5,366.5 C 222.833,366.5 225.167,366.5 227.5,366.5C 227.5,370.5 227.5,374.5 227.5,378.5C 221.973,379.804 219.307,377.638 219.5,372C 219.696,370.122 220.029,368.288 220.5,366.5 Z"/></g>
<g><path style="opacity:0.292" fill="#a8a8a8" d="M 324.5,366.5 C 324.5,367.5 324.5,368.5 324.5,369.5C 326.5,369.5 328.5,369.5 330.5,369.5C 330.5,368.5 330.5,367.5 330.5,366.5C 331.434,367.568 331.768,368.901 331.5,370.5C 328.833,370.5 326.167,370.5 323.5,370.5C 323.232,368.901 323.566,367.568 324.5,366.5 Z"/></g>
<g><path style="opacity:0.922" fill="#1d1d1d" d="M 324.5,366.5 C 326.5,366.5 328.5,366.5 330.5,366.5C 330.5,367.5 330.5,368.5 330.5,369.5C 328.5,369.5 326.5,369.5 324.5,369.5C 324.5,368.5 324.5,367.5 324.5,366.5 Z"/></g>
<g><path style="opacity:0.039" fill="#bebebe" d="M 81.5,369.5 C 83.3797,369.229 84.713,369.896 85.5,371.5C 83.847,371.34 82.5137,370.674 81.5,369.5 Z"/></g>
<g><path style="opacity:0.898" fill="#222123" d="M 259.5,362.5 C 259.5,362.833 259.5,363.167 259.5,363.5C 259.5,369.5 259.5,375.5 259.5,381.5C 264.167,381.5 268.833,381.5 273.5,381.5C 273.5,380.5 273.5,379.5 273.5,378.5C 270.167,378.5 266.833,378.5 263.5,378.5C 263.5,377.167 263.5,375.833 263.5,374.5C 265.5,374.5 267.5,374.5 269.5,374.5C 269.5,373.167 269.5,371.833 269.5,370.5C 267.5,370.5 265.5,370.5 263.5,370.5C 263.5,369.167 263.5,367.833 263.5,366.5C 267.329,367.069 270.663,366.402 273.5,364.5C 273.5,363.833 273.5,363.167 273.5,362.5C 279.358,362.178 285.025,362.511 290.5,363.5C 286.167,363.5 281.833,363.5 277.5,363.5C 277.5,369.5 277.5,375.5 277.5,381.5C 278.833,381.5 280.167,381.5 281.5,381.5C 281.5,379.167 281.5,376.833 281.5,374.5C 286.728,375.769 290.395,374.102 292.5,369.5C 293.117,369.611 293.617,369.944 294,370.5C 295.032,368.006 296.198,365.672 297.5,363.5C 296.041,369.212 294.375,374.878 292.5,380.5C 294.467,381.684 296.134,381.351 297.5,379.5C 297.5,380.5 297.5,381.5 297.5,382.5C 293.138,383.142 289.805,381.642 287.5,378C 288.996,377.493 290.163,377.993 291,379.5C 291.268,377.41 290.268,376.076 288,375.5C 287.085,376.328 286.419,377.328 286,378.5C 285.676,376.431 284.842,376.098 283.5,377.5C 282.548,379.045 282.215,380.712 282.5,382.5C 271.99,382.666 261.323,382.666 250.5,382.5C 250.5,381.167 250.5,379.833 250.5,378.5C 251.404,379.209 251.737,380.209 251.5,381.5C 252.873,381.657 254.207,381.49 255.5,381C 254.748,380.329 254.414,379.496 254.5,378.5C 255.583,378.461 256.583,378.127 257.5,377.5C 258.167,372.349 258.834,367.349 259.5,362.5 Z M 290.5,363.5 C 290.5,363.833 290.5,364.167 290.5,364.5C 291.024,366.306 291.691,367.972 292.5,369.5C 290.395,374.102 286.728,375.769 281.5,374.5C 281.5,376.833 281.5,379.167 281.5,381.5C 280.167,381.5 278.833,381.5 277.5,381.5C 277.5,375.5 277.5,369.5 277.5,363.5C 281.833,363.5 286.167,363.5 290.5,363.5 Z M 259.5,363.5 C 264.263,363.226 268.93,363.559 273.5,364.5C 270.663,366.402 267.329,367.069 263.5,366.5C 263.5,367.833 263.5,369.167 263.5,370.5C 265.5,370.5 267.5,370.5 269.5,370.5C 269.5,371.833 269.5,373.167 269.5,374.5C 267.5,374.5 265.5,374.5 263.5,374.5C 263.5,375.833 263.5,377.167 263.5,378.5C 266.833,378.5 270.167,378.5 273.5,378.5C 273.5,379.5 273.5,380.5 273.5,381.5C 268.833,381.5 264.167,381.5 259.5,381.5C 259.5,375.5 259.5,369.5 259.5,363.5 Z"/></g>
<g><path style="opacity:0.006" fill="#f1f1f1" d="M 290.5,364.5 C 292.256,365.552 292.923,367.219 292.5,369.5C 291.691,367.972 291.024,366.306 290.5,364.5 Z"/></g>
<g><path style="opacity:0.91" fill="#3e3c3e" d="M 281.5,366.5 C 284.397,366.125 287.063,366.625 289.5,368C 287.347,370.165 284.681,370.998 281.5,370.5C 281.5,369.167 281.5,367.833 281.5,366.5 Z"/></g>
<g><path style="opacity:0.047" fill="#a9a7a9" d="M 259.5,363.5 C 259.5,363.167 259.5,362.833 259.5,362.5C 264.167,362.5 268.833,362.5 273.5,362.5C 273.5,363.167 273.5,363.833 273.5,364.5C 268.93,363.559 264.263,363.226 259.5,363.5 Z"/></g>
<g><path style="opacity:0.796" fill="#4e4b4f" d="M 165.5,370.5 C 167.741,371.3 168.741,372.966 168.5,375.5C 164.67,375.504 163.67,373.838 165.5,370.5 Z"/></g>
<g><path style="opacity:0.043" fill="#737373" d="M 231.5,366.5 C 232.647,370.646 232.814,374.98 232,379.5C 231.583,380.756 230.75,381.423 229.5,381.5C 231.318,376.729 231.985,371.729 231.5,366.5 Z"/></g>
<g><path style="opacity:0.18" fill="#716f73" d="M 299.5,370.5 C 301.741,371.3 302.741,372.966 302.5,375.5C 301.167,375.5 299.833,375.5 298.5,375.5C 298.366,373.708 298.699,372.042 299.5,370.5 Z"/></g>
<g><path style="opacity:0.231" fill="#403f41" d="M 176.5,378.5 C 176.833,378.5 177.167,378.5 177.5,378.5C 177.953,379.458 178.619,380.292 179.5,381C 183.486,381.499 187.486,381.666 191.5,381.5C 184.257,382.055 176.923,382.388 169.5,382.5C 169.5,381.5 169.5,380.5 169.5,379.5C 170.261,380.391 171.261,381.058 172.5,381.5C 173.713,381.253 174.38,380.586 174.5,379.5C 175.492,379.672 176.158,379.338 176.5,378.5 Z"/></g>
<g><path style="opacity:0.844" fill="#484848" d="M 444.5,378.5 C 434.351,382.33 424.018,385.996 413.5,389.5C 415.253,387.777 417.253,386.277 419.5,385C 423.167,384 426.833,383 430.5,382C 429.833,381.667 429.167,381.333 428.5,381C 434.04,382.625 438.54,381.125 442,376.5C 442.995,377.066 443.828,377.733 444.5,378.5 Z"/></g>
<g><path style="opacity:0.255" fill="#797979" d="M 61.5,382.5 C 63.8984,382.259 65.8984,382.926 67.5,384.5C 65.1016,384.741 63.1016,384.074 61.5,382.5 Z"/></g>
<g><path style="opacity:0.555" fill="#403f3f" d="M 111.5,380.5 C 115.351,381.561 119.185,381.561 123,380.5C 124.301,381.098 125.135,382.098 125.5,383.5C 128.68,384.437 131.847,385.437 135,386.5C 136.31,387.13 137.144,388.13 137.5,389.5C 128.748,386.473 120.081,383.473 111.5,380.5 Z"/></g>
<g><path style="opacity:0.953" fill="#434343" d="M 141.5,390.5 C 144.049,390.387 146.382,391.054 148.5,392.5C 149.192,391.975 149.692,391.308 150,390.5C 152.425,392.667 154.925,394.667 157.5,396.5C 151.962,394.793 146.629,392.793 141.5,390.5 Z"/></g>
<g><path style="opacity:0.533" fill="#727171" d="M 157.5,396.5 C 160.228,396.171 162.562,396.837 164.5,398.5C 161.933,398.279 159.599,397.612 157.5,396.5 Z"/></g>
<g><path style="opacity:0.757" fill="#4d4d4d" d="M 395.5,395.5 C 388.378,398.206 381.045,400.539 373.5,402.5C 380.086,398.485 387.42,396.151 395.5,395.5 Z"/></g>
<g><path style="opacity:0.963" fill="#2b2b2d" d="M 249.5,398.5 C 253.168,400.239 253.501,402.572 250.5,405.5C 251.833,406.833 253.167,408.167 254.5,409.5C 254.081,410.672 253.415,411.672 252.5,412.5C 250.677,411.253 248.677,410.586 246.5,410.5C 245.632,414.619 243.966,415.119 241.5,412C 242.029,410.441 242.696,408.941 243.5,407.5C 241.833,406.5 240.5,405.167 239.5,403.5C 241.485,401.067 243.652,401.067 246,403.5C 247.176,401.804 248.343,400.138 249.5,398.5 Z"/></g>
<g><path style="opacity:0.904" fill="#535252" d="M 373.5,402.5 C 368.978,405.24 363.978,407.24 358.5,408.5C 360.844,405.658 363.844,403.825 367.5,403C 369.473,402.505 371.473,402.338 373.5,402.5 Z"/></g>
<g><path style="opacity:0.992" fill="#414141" d="M 328.5,398.5 C 315.444,403.742 302.111,408.409 288.5,412.5C 289.114,410.717 290.28,409.384 292,408.5C 294.21,409.749 296.376,409.582 298.5,408C 296.729,407.465 296.396,406.631 297.5,405.5C 299.768,406.544 302.101,406.711 304.5,406C 310.341,404.054 316.007,401.721 321.5,399C 323.81,398.503 326.143,398.337 328.5,398.5 Z"/></g>
<g><path style="opacity:0.427" fill="#7f7f7f" d="M 211.5,414.5 C 214.916,414.528 217.916,415.528 220.5,417.5C 217.215,417.072 214.215,416.072 211.5,414.5 Z"/></g>
<g><path style="opacity:0.055" fill="#b0b0b0" d="M 273.5,417.5 C 272.22,418.931 270.553,419.598 268.5,419.5C 269.78,418.069 271.447,417.402 273.5,417.5 Z"/></g>
<g><path style="opacity:0.325" fill="#555555" d="M 261.5,421.5 C 258.449,423.352 255.116,424.686 251.5,425.5C 254.015,422.433 257.349,421.099 261.5,421.5 Z"/></g>
<g><path style="opacity:0.698" fill="#504e4f" d="M 328.5,418.5 C 317.178,423.254 305.511,427.254 293.5,430.5C 297.592,427.959 301.926,425.792 306.5,424C 309.576,423.654 312.576,422.988 315.5,422C 315.167,421.667 314.833,421.333 314.5,421C 319.163,420.054 323.83,419.221 328.5,418.5 Z"/></g>
</svg>
